<svg width="219" height="206" viewBox="0 0 219 206" fill="none" xmlns="http://www.w3.org/2000/svg">
<path d="M42.9304 86.7489C43.1367 84.5341 41.5053 82.6691 39.1519 82.4869C36.8676 82.3101 34.9442 83.7688 34.711 85.8831C34.4701 88.0953 36.0643 89.9902 38.4127 90.2375C40.7612 90.4849 42.7242 88.9637 42.9304 86.7489ZM48.1212 87.6099C45.5676 87.3139 43.2729 89.0718 43.0515 91.4823C42.8352 93.8276 44.6565 95.9369 47.1434 96.195C49.6969 96.4911 51.9917 94.7331 52.213 92.3226C52.4294 89.9773 50.6426 87.8707 48.1237 87.5773L48.1212 87.6099ZM49.7916 110.113C52.3477 110.376 54.7538 108.529 54.9777 106.085C55.167 103.64 53.2148 101.422 50.5845 101.218C48.058 101.023 45.7607 102.813 45.5098 105.156C45.2192 107.561 47.2009 109.847 49.7916 110.113ZM41.3649 104.277C43.7479 104.527 45.9659 102.862 46.2118 100.584C46.4551 98.3397 44.5992 96.2277 42.2136 96.0103C39.7909 95.8228 37.6397 97.5262 37.4656 99.7763C37.2965 101.961 39.0536 104 41.3674 104.245L41.3649 104.277ZM19.1711 94.1285C17.4777 93.9646 16.0396 95.0015 15.8467 96.594C15.6462 98.2844 16.863 99.658 18.6255 99.8273C20.3214 99.9585 21.73 98.8537 21.8883 97.2585C22.0119 95.6606 20.899 94.295 19.1711 94.1285ZM60.1861 67.5807C59.9943 70.0591 62.0208 72.2171 64.6537 72.3881C67.284 72.5917 69.5517 70.7332 69.7114 68.2195C69.9058 65.7085 67.9114 63.5858 65.2464 63.3795C62.6161 63.176 60.3459 65.067 60.1541 67.5454L60.1861 67.5807ZM66.3976 59.3023C66.2083 61.7481 68.2297 63.9713 70.828 64.1396C73.4237 64.3405 75.7336 62.3869 75.8858 59.971C76.0008 57.5851 74.041 55.4651 71.5516 55.2396C68.9559 55.0387 66.619 56.8918 66.4297 59.3376L66.3976 59.3023ZM81.476 52.071C81.6231 49.7203 79.7276 47.6709 77.2356 47.478C74.6745 47.2798 72.4465 49.0757 72.2943 51.4916C72.1472 53.8422 74.0428 55.8917 76.5347 56.0845C79.0958 56.2828 81.3239 54.4869 81.476 52.071ZM63.9481 76.1062C64.1424 73.5952 62.1481 71.4724 59.4831 71.2662C56.8528 71.0626 54.5851 72.9211 54.3907 75.4321C54.1989 77.9105 56.1908 80.0658 58.8557 80.2721C61.4861 80.4756 63.7537 78.6172 63.9481 76.1062ZM42.2341 61.1064C40.1576 60.9457 38.3009 62.4423 38.1123 64.4288C37.9583 66.4181 39.528 68.1799 41.6021 68.3732C43.78 68.5746 45.6763 67.0154 45.7982 64.9909C45.9522 63.0016 44.3107 61.2671 42.197 61.1363L42.2341 61.1064ZM58.1173 84.4141C58.3066 81.9683 56.3198 79.7477 53.7241 79.5468C51.1976 79.3513 48.9349 81.1445 48.6815 83.5197C48.423 85.9602 50.4072 88.2133 53.0004 88.4468C55.5937 88.6804 57.9652 86.8299 58.1545 84.3841L58.1173 84.4141ZM26.768 80.5443C26.6191 82.4683 28.2606 84.2028 30.273 84.293C32.2508 84.3805 33.9665 82.9057 34.0758 81.0443C34.185 79.1828 32.6078 77.5188 30.6325 77.3988C28.6597 77.2461 26.9119 78.6855 26.768 80.5443ZM40.6372 78.1403C40.4631 80.3904 42.3908 82.4752 44.7468 82.6247C47.0707 82.7389 49.1898 81.0002 49.3243 78.8126C49.4934 76.6277 47.5953 74.6109 45.2764 74.4314C42.9576 74.2519 40.841 75.9581 40.6372 78.1403ZM32.425 72.6822C32.2711 74.6715 33.747 76.2948 35.8211 76.4881C37.999 76.6895 39.7789 75.2854 39.9354 73.2635C40.0893 71.2743 38.648 69.6536 36.5393 69.4576C34.3614 69.2563 32.5815 70.6604 32.4225 72.7148L32.425 72.6822ZM27.9656 89.3633C28.1044 87.5698 26.7914 86.0903 24.9225 85.9457C22.9497 85.793 21.3555 87.0474 21.2463 88.9089C21.1074 90.7025 22.4947 92.1221 24.3982 92.2694C26.3018 92.4167 27.8268 91.1569 27.9656 89.3633ZM46.3912 69.9249C46.2145 72.2076 48.0755 74.2544 50.5007 74.4093C52.8888 74.5941 55.0451 72.8254 55.1872 70.54C55.3588 68.3225 53.5248 66.3762 51.1739 66.1615C48.7858 65.9766 46.6 67.6774 46.4258 69.9275L46.3912 69.9249ZM56.7321 58.2262C54.4082 58.1119 52.3262 59.8207 52.1545 62.0382C51.9779 64.321 53.8414 66.3351 56.2641 66.5226C58.6868 66.7101 60.811 64.9062 60.9159 62.6507C61.058 60.3653 59.1227 58.3784 56.7296 58.2588L56.7321 58.2262ZM30.1434 138.15C30.2671 136.552 29.117 135.217 27.3891 135.05C25.5894 134.911 24.1783 136.048 24.0842 137.714C23.9605 139.312 25.2169 140.623 26.9153 140.722C28.6112 140.853 29.9877 139.713 30.1459 138.118L30.1434 138.15ZM7.04628 111.332C6.37787 111.87 5.3338 112.315 5.17949 112.959C5.03023 113.538 5.90917 114.327 6.3061 115.047C6.58297 115.069 6.89446 115.093 7.17134 115.114C7.70888 114.467 8.66426 113.819 8.60587 113.224C8.58712 112.566 7.58921 111.964 7.01167 111.329L7.04628 111.332ZM12.6795 138.865C12.0464 138.948 11.1577 139.633 11.0802 140.185C10.9706 140.701 11.7558 141.353 12.5032 142.493C13.2837 141.405 14.0585 140.842 14.0347 140.25C14.0379 139.758 13.0999 138.832 12.6795 138.865ZM10.0136 125.176C9.27668 125.25 8.27407 126.058 8.15437 126.705C8.00259 127.317 8.81231 128.101 9.20923 128.821C9.48611 128.842 9.7976 128.866 10.072 128.92C10.6416 128.308 11.483 127.783 11.677 127.076C12.0051 125.986 11.208 125.039 10.0136 125.176ZM18.4865 129.965C17.1021 129.858 15.8395 130.876 15.7732 132.183C15.6722 133.487 16.7631 134.687 18.1501 134.762C19.5344 134.869 20.797 133.851 20.898 132.547C20.9989 131.242 19.908 130.042 18.5236 129.935L18.4865 129.965ZM14.164 153.874C14.1362 154.233 14.6968 154.637 14.9831 154.987C15.3915 154.658 16.0026 154.41 16.1393 153.994C16.2287 153.739 15.6756 153.237 15.2391 152.58C14.7066 153.162 14.1225 153.51 14.1294 153.871L14.164 153.874ZM27.0321 105.924C29.0048 106.076 30.7526 104.637 30.9311 102.781C31.075 100.922 29.5695 99.2308 27.5992 99.0455C25.6265 98.8929 23.8491 100.264 23.6385 102.085C23.4204 104.004 25.0247 105.768 27.0321 105.924ZM21.4682 144.073C20.0838 143.966 19.2643 144.657 19.0942 145.956C18.929 147.19 19.9262 148.251 21.249 148.255C22.6409 148.264 23.3566 147.565 23.5613 146.269C23.4842 145.016 22.8526 144.18 21.4682 144.073ZM22.4699 159.471C22.4321 159.96 23.3305 160.948 23.7137 160.945C24.3443 160.895 25.2625 160.277 25.4092 159.731C25.5535 159.217 24.8054 158.536 24.1298 157.368C23.2851 158.386 22.4757 158.946 22.4674 159.503L22.4699 159.471ZM113.627 153.994C111.032 153.793 108.695 155.646 108.505 158.092C108.316 160.538 110.337 162.761 112.936 162.929C115.531 163.13 117.873 161.212 117.993 158.761C118.143 156.378 116.186 154.225 113.627 153.994ZM16.3883 49.5595C16.8541 48.9394 17.406 48.5557 17.3646 48.1916C17.3231 47.8275 16.7575 47.4885 16.4366 47.1356C16.0602 47.5001 15.4812 47.7834 15.3446 48.1993C15.2872 48.4901 15.8799 48.9297 16.3908 49.5269L16.3883 49.5595ZM18.8162 63.6243C20.2006 63.7315 21.0547 63.043 21.1557 61.7386C21.2566 60.4342 20.4765 59.7177 19.0701 59.4448C17.8436 59.5467 16.8983 60.0641 16.7973 61.3685C16.6989 62.6403 17.4344 63.4846 18.7841 63.589L18.8162 63.6243ZM122.846 146.9C125.631 147.804 127.524 146.737 129.274 145.265C130.247 143.044 130.416 140.859 128.735 139.187C130.56 139 132.417 138.849 134.277 138.664C134.07 140.879 134.821 142.873 137.208 143.976C139.157 144.882 141.059 144.602 142.658 143.283C144.968 141.329 144.767 138.984 143.324 136.478C146.073 136.953 148.205 136.396 149.556 134.237C150.946 132.016 150.2 129.957 148.377 127.88C150.986 128.804 153.13 128.543 154.804 126.704C156.632 124.681 156.314 122.491 154.812 120.308C157.949 120.715 159.955 119.984 161.081 118.037C162.124 116.248 161.91 114.066 160.461 112.544C158.395 110.448 155.992 110.459 153.78 111.6C153.419 109.965 153.058 108.329 152.668 106.626C154.949 107.294 156.805 106.257 158.52 104.782C159.451 102.656 159.65 100.539 157.887 98.5658C161.234 98.9561 163.209 98.1903 164.267 96.2055C165.202 94.4736 164.954 92.2891 163.529 90.8994C161.428 88.8013 159.018 88.91 156.221 90.3995C157.155 87.7817 156.006 85.9868 154.429 84.3228C152.064 83.3853 149.745 83.2058 147.99 84.7431C147.809 83.0232 147.597 81.2681 147.385 79.5129C149.808 79.7004 151.947 79.0459 153.039 76.6371C153.915 74.7694 153.532 72.9682 152.078 71.5106C149.977 69.4125 147.559 69.619 144.948 70.9588C145.39 68.4013 144.852 66.3585 142.549 65.0649C140.146 63.7307 137.974 64.3499 135.781 66.1485C136.741 63.6312 136.45 61.542 134.416 59.941C132.215 58.2288 129.925 58.5765 127.624 59.973C128.123 57.1247 127.396 55.2642 125.398 54.0926C123.6 53.0348 121.333 53.089 119.741 54.3108C117.226 56.2157 117.252 58.5798 118.504 60.8419C116.736 61.1971 115.005 61.5224 113.236 61.8776C113.93 59.6677 112.812 57.9081 111.23 56.3094C108.932 55.4098 106.72 55.2058 104.492 57.0017C105.121 54.2619 104.588 52.1539 102.078 50.8442C100.339 49.9223 98.0592 50.1395 96.606 51.3721C94.2615 53.323 94.4284 55.6651 95.9941 58.378C93.1745 57.4708 91.3135 58.5734 89.5285 60.0427C88.5854 62.3318 88.4163 64.5167 90.1987 66.2293C88.3788 66.3509 86.4525 66.4971 84.5288 66.6106C84.6979 64.4257 83.9866 62.3695 81.459 61.2881C79.4726 60.4127 77.5658 60.7572 76.0332 62.1148C73.8271 64.0765 74.0337 66.3561 75.5133 68.8326C72.7621 68.39 70.5287 68.9061 69.2049 71.1657C67.8861 73.36 68.6691 75.389 70.4609 77.4304C67.7501 76.466 65.6011 76.7918 63.9614 78.6333C62.1656 80.6923 62.5207 82.8521 64.0872 85.1058C61.3858 84.4702 59.2933 84.9644 57.8412 87.0828C56.7012 88.7661 56.7819 90.8719 58.0899 92.4166C60.1333 94.8055 62.6403 94.8027 65.028 93.6425C65.421 95.3132 65.7819 96.9486 66.1723 98.6519C63.795 97.8774 61.9982 99.0506 60.2875 100.46C59.357 102.586 59.1583 104.703 60.9897 106.682C57.6081 106.289 55.6364 107.022 54.575 109.04C53.6402 110.772 53.8889 112.956 55.3133 114.346C57.414 116.444 59.8273 116.303 62.621 114.846C61.6847 117.496 62.8687 119.294 64.4484 120.925C66.8477 121.865 69.1344 122.009 70.9244 120.475C71.1072 122.162 71.2824 123.947 71.4576 125.732C69.0695 125.547 66.8581 126.229 65.7588 128.736C64.9152 130.639 65.3698 132.413 66.8609 133.84C68.9346 135.838 71.3158 135.661 73.9339 134.224C73.3809 136.871 74.055 138.957 76.3944 140.221C78.7313 141.517 80.9107 140.8 83.0594 139.129C82.1036 141.581 82.4046 143.54 84.2317 145.125C86.4218 146.968 88.776 146.691 91.1468 145.299C90.712 148.218 91.5372 150.152 93.6098 151.264C95.517 152.264 97.829 152.082 99.3987 150.695C101.602 148.766 101.566 146.532 100.338 144.403C102.104 144.081 103.803 143.72 105.604 143.4C104.913 145.577 106.067 147.307 107.612 148.936C109.91 149.835 112.123 150.039 114.2 148.396C113.817 151.548 114.647 153.417 116.762 154.434C118.607 155.331 120.922 155.116 122.382 153.786C124.589 151.824 124.451 149.55 122.846 146.9ZM127.828 129.767C127.639 128.604 127.458 127.344 127.243 126.08C128.445 125.845 129.755 125.553 131.17 125.269C131.425 126.47 131.678 127.703 131.928 128.969C130.62 129.229 129.205 129.513 127.791 129.797L127.828 129.767ZM119.711 105.978C119.9 107.141 120.12 108.339 120.343 109.504C119.07 109.766 117.727 110.023 116.451 110.318C116.227 109.153 116.041 107.957 115.818 106.792C117.092 106.53 118.4 106.27 119.709 106.01L119.711 105.978ZM113.851 96.6667C113.561 95.4633 113.272 94.2598 112.952 92.9885C114.115 92.816 115.383 92.6189 116.652 92.4219C116.947 93.5601 117.234 94.7961 117.551 96.1001C116.389 96.2726 115.12 96.4696 113.851 96.6667ZM118.921 85.1505C120.229 84.8909 121.505 84.596 122.848 84.3391C123.042 85.4367 123.262 86.6347 123.481 87.8654C122.214 88.0299 120.876 88.2216 119.608 88.4187C119.375 87.3836 119.181 86.2861 118.921 85.1505ZM122.347 119.599C122.536 120.762 122.72 121.99 122.933 123.286C121.839 123.464 120.638 123.699 119.473 123.904C119.183 122.701 118.863 121.429 118.576 120.193C119.81 119.994 121.111 119.832 122.345 119.632L122.347 119.599ZM122.256 102.336C121.998 101.168 121.684 99.8318 121.402 98.5305C122.745 98.2736 124.122 98.0193 125.465 97.7624C125.752 98.9985 126.03 100.365 126.314 101.634C125.043 101.863 123.703 102.088 122.256 102.336ZM128.079 111.678C128.369 112.881 128.688 114.152 128.975 115.388C127.741 115.588 126.475 115.753 125.206 115.95C125.018 114.787 124.834 113.559 124.619 112.296C125.712 112.118 126.914 111.883 128.079 111.678ZM128.008 94.1537C127.819 92.9909 127.601 91.7602 127.378 90.5947C128.609 90.4276 129.913 90.2332 131.282 90.0768C131.511 91.177 131.736 92.3099 131.935 93.3423C130.661 93.6046 129.316 93.8941 128.008 94.1537ZM133.902 103.467C134.088 104.663 134.304 105.926 134.524 107.124C133.431 107.302 132.232 107.505 131.064 107.742C130.772 106.571 130.487 105.303 130.168 104.031C131.402 103.832 132.668 103.667 133.902 103.467ZM133.636 121.753C133.385 120.487 133.076 119.085 132.826 117.819C134.134 117.559 135.512 117.305 136.924 117.053C137.243 118.325 137.587 119.729 137.907 121.001C136.529 121.255 135.011 121.531 133.636 121.753ZM136.763 99.785C136.575 98.6222 136.357 97.3916 136.171 96.1961C137.375 95.9285 138.718 95.6716 140.064 95.382C140.351 96.6181 140.7 97.9573 141.012 99.3265C139.714 99.4557 138.237 99.6367 136.763 99.785ZM142.87 109.05C143.091 110.248 143.307 111.511 143.493 112.707C142.147 112.996 140.733 113.28 139.39 113.537C139.199 112.407 139.015 111.179 138.832 109.951C140.142 109.659 141.56 109.342 142.873 109.017L142.87 109.05ZM136.376 135.382C136.222 134.222 136.049 132.864 135.841 131.503C137.114 131.24 138.566 130.926 139.768 130.691C140.114 132.063 140.493 133.47 140.845 134.777C139.507 134.968 137.889 135.171 136.341 135.38L136.376 135.382ZM142.293 127.311C142.04 126.077 141.731 124.676 141.454 123.309C142.759 123.082 144.243 122.803 145.48 122.571C146.021 124.122 146.592 125.741 147.013 127.053C145.683 127.147 143.935 127.241 142.29 127.343L142.293 127.311ZM152.401 118.612C151.066 118.771 149.59 118.952 148.113 119.133C147.888 118 147.643 116.669 147.397 115.338C148.706 115.078 150.158 114.764 151.431 114.502C151.748 115.806 152.09 117.243 152.401 118.612ZM154.799 92.5858C155.074 93.9849 155.338 95.5144 155.576 96.9435C154.275 97.1052 152.732 97.2483 151.29 97.4319C151.035 96.2312 150.758 94.8647 150.475 93.5634C151.893 93.2466 153.488 92.878 154.799 92.5858ZM148.723 100.908C149.07 102.279 149.48 103.722 149.832 105.028C148.425 105.215 146.773 105.415 145.227 105.591C144.975 104.357 144.636 102.888 144.358 101.521C145.768 101.302 147.388 101.067 148.76 100.878L148.723 100.908ZM146.38 86.6524C146.489 87.9403 146.57 89.5869 146.694 91.1383C145.457 91.3707 143.939 91.6468 142.633 91.8738C142.319 90.5373 142.012 89.1029 141.722 87.8994C143.357 87.4683 145.029 87.0072 146.414 86.6551L146.38 86.6524ZM143.342 73.2622C143.555 74.5581 143.785 76.085 144.023 77.514C142.794 77.6485 141.355 77.7996 139.913 77.9833C139.623 76.7798 139.274 75.4406 139.019 74.2398C140.508 73.8958 142.032 73.5544 143.377 73.2649L143.342 73.2622ZM137.195 81.6112C137.48 82.8799 137.794 84.2164 138.077 85.5177C136.81 85.6821 135.475 85.8412 134.172 86.0356C133.911 84.9001 133.59 83.6613 133.273 82.3574C134.509 82.125 135.887 81.8708 137.158 81.6411L137.195 81.6112ZM135.025 67.3695C135.131 68.69 135.282 70.3419 135.411 71.8281C134.105 72.0551 132.549 72.3612 131.1 72.6427C130.847 71.4093 130.572 70.0102 130.32 68.7768C131.923 68.3104 133.634 67.7868 135.059 67.3721L135.025 67.3695ZM128.721 75.936C128.974 77.1694 129.246 78.6011 129.555 80.0029C128.25 80.2299 126.837 80.4815 125.393 80.6978C125.111 79.3965 124.797 78.0599 124.541 76.8592C125.921 76.5723 127.376 76.2256 128.756 75.9387L128.721 75.936ZM126.058 62.2139C126.273 63.4772 126.476 64.9035 126.714 66.3326C125.517 66.5024 124.073 66.7187 122.594 66.9323C122.304 65.7288 121.99 64.3922 121.707 63.091C123.157 62.8095 124.678 62.5007 126.058 62.2139ZM119.873 70.5928C120.163 71.7962 120.512 73.1355 120.827 74.4721C119.595 74.6392 118.257 74.8309 116.991 74.9953C116.669 73.7566 116.318 72.45 115.969 71.1107C117.235 70.9463 118.538 70.7519 119.873 70.5928ZM114.035 78.9985C114.234 80.0309 114.459 81.1638 114.722 82.2667C113.483 82.5317 112.14 82.7886 110.795 83.0781C110.571 81.9126 110.385 80.7172 110.162 79.5518C111.428 79.3873 112.766 79.1956 114.035 78.9985ZM90.9438 111.034C91.1324 112.197 91.3505 113.428 91.5736 114.593C90.3421 114.76 89.0413 114.922 87.7034 115.114C87.4702 114.079 87.2445 112.946 87.0163 111.846C88.29 111.583 89.633 111.326 90.9438 111.034ZM85.0123 101.75C84.8263 100.555 84.6107 99.2917 84.4272 98.0636C85.5203 97.8858 86.7543 97.6861 87.8846 97.4783C88.1719 98.7143 88.4913 99.9857 88.7811 101.189C87.5471 101.389 86.2438 101.583 85.0123 101.75ZM90.8726 93.5104C90.5802 92.3395 90.2929 91.1035 89.976 89.7995C91.1383 89.627 92.4416 89.4327 93.7103 89.2356C93.9309 90.4337 94.1465 91.697 94.33 92.925C93.2369 93.1029 92.0374 93.3053 90.8726 93.5104ZM96.6978 102.819C96.9826 104.087 97.2649 105.389 97.515 106.655C96.2067 106.914 94.8292 107.169 93.4516 107.423C93.1668 106.154 92.8846 104.853 92.5997 103.584C93.9081 103.325 95.3548 103.076 96.6632 102.816L96.6978 102.819ZM95.9816 81.9316C97.0747 81.7538 98.2742 81.5514 99.439 81.3463C99.7314 82.5171 100.016 83.7858 100.336 85.0571C99.1387 85.2269 97.87 85.424 96.5988 85.6537C96.4128 84.4583 96.1626 83.1923 95.9791 81.9643L95.9816 81.9316ZM99.341 116.802C99.5692 117.902 99.7948 119.035 99.9935 120.067C98.7198 120.33 97.3743 120.619 96.066 120.879C95.8428 119.713 95.6247 118.483 95.4362 117.32C96.7023 117.155 98.0031 116.994 99.341 116.802ZM99.2402 99.2101C99.017 98.0446 98.8285 96.8818 98.6079 95.6838C99.8098 95.4487 101.121 95.1565 102.498 94.9023C102.692 95.9998 102.912 97.1979 103.133 98.396C101.894 98.661 100.586 98.9206 99.2402 99.2101ZM105.1 108.521C105.392 109.692 105.68 110.928 105.999 112.199C104.837 112.372 103.568 112.569 102.299 112.766C102.01 111.563 101.722 110.327 101.4 109.088C102.563 108.915 103.831 108.718 105.1 108.521ZM105.038 91.3262C104.753 90.0575 104.474 88.7236 104.221 87.4902C105.527 87.2632 106.941 86.979 108.284 86.7221C108.572 87.9582 108.854 89.2595 109.136 90.5607C107.793 90.8177 106.381 91.0692 105.073 91.3288L105.038 91.3262ZM110.9 100.605C111.129 101.705 111.352 102.87 111.58 103.971C110.45 104.178 109.285 104.384 108.051 104.583C107.82 103.516 107.594 102.383 107.334 101.247C108.499 101.042 109.698 100.84 110.9 100.605ZM111.707 64.5477C111.915 65.9089 112.142 67.4684 112.34 68.96C111.034 69.187 109.478 69.493 108.032 69.7419C107.821 68.4134 107.554 66.9164 107.344 65.5879C108.798 65.2412 110.393 64.8726 111.741 64.5504L111.707 64.5477ZM105.705 72.8096C105.886 74.0703 106.057 75.4613 106.231 76.8198C105.034 76.9896 103.696 77.1813 102.43 77.3458C102.137 76.1749 101.852 74.9063 101.533 73.6349C102.948 73.3507 104.328 73.0639 105.708 72.777L105.705 72.8096ZM103.042 59.0875C103.22 60.3807 103.426 61.7745 103.634 63.1356C102.328 63.3626 100.844 63.6414 99.5383 63.8684C99.1598 62.4613 98.7517 60.9862 98.3951 59.7448C99.8022 59.5585 101.494 59.2957 103.042 59.0875ZM96.9689 67.3766C97.1945 68.5095 97.5013 69.9439 97.7836 71.2452C96.406 71.4994 94.885 71.8082 93.5075 72.0624C93.0648 70.5847 92.5629 68.9712 92.1793 67.6292C93.6135 67.5434 95.2924 67.4437 96.9714 67.344L96.9689 67.3766ZM91.1212 75.4536C91.3097 76.6164 91.4882 77.9096 91.6716 79.1376C90.3608 79.4298 89.0871 79.6921 87.7762 79.9843C87.521 78.7836 87.2362 77.5149 86.9835 76.2815C88.361 76.0273 89.8103 75.7458 91.1532 75.4889L91.1212 75.4536ZM85.3156 83.4354C85.5709 84.6361 85.8481 86.0026 86.0907 87.3665C84.7824 87.6261 83.3356 87.8749 82.0273 88.1346C81.7079 86.8632 81.3614 85.4913 81.0125 84.1521C82.3875 83.9305 83.8714 83.6516 85.3182 83.4027L85.3156 83.4354ZM82.1187 105.398C82.3368 106.628 82.5549 107.859 82.746 108.989C81.4723 109.251 80.1268 109.541 78.8185 109.801C78.5286 108.597 78.2489 107.263 77.9396 105.861C79.2057 105.697 80.7141 105.551 82.1212 105.365L82.1187 105.398ZM76.0437 96.1682C75.8551 95.0054 75.637 93.7747 75.424 92.4787C76.6977 92.2165 78.147 91.935 79.5296 91.6155C79.7181 92.7783 79.9312 94.0742 80.1222 95.2044C78.7025 95.5538 77.3545 95.876 76.0437 96.1682ZM82.5755 69.8057C82.6998 70.8979 82.9053 72.2916 83.0762 73.6827C81.8025 73.945 80.3853 74.2618 79.1116 74.5241C78.7305 73.1495 78.357 71.6772 78.003 70.4031C79.3383 70.244 80.9556 70.0412 82.5729 69.8383L82.5755 69.8057ZM76.5868 77.9045C76.842 79.1053 77.1809 80.575 77.4902 81.9767C76.219 82.2064 74.703 82.45 73.3972 82.677C72.8853 81.1939 72.3489 79.5777 71.864 78.1951C73.2289 78.1039 74.9771 78.0096 76.5868 77.9045ZM66.4781 86.603C67.816 86.4113 69.3641 86.2031 70.8404 86.0221C71.0289 87.1849 71.269 88.5813 71.5142 89.9125C70.0995 90.1967 68.7194 90.4836 67.4482 90.7133C67.1314 89.4093 66.7899 87.9722 66.4781 86.603ZM64.1179 112.599C63.8753 111.236 63.6107 109.706 63.341 108.242C64.6393 108.113 66.1502 107.934 67.6265 107.753C67.8793 108.987 68.186 110.421 68.4413 111.622C66.9869 111.969 65.4288 112.307 64.1179 112.599ZM70.1935 104.278C69.8445 102.938 69.4685 101.499 69.122 100.127C70.492 99.9704 72.1439 99.7702 73.692 99.562C73.9743 100.863 74.3157 102.3 74.5954 103.634C73.1883 103.821 71.5685 104.056 70.1589 104.275L70.1935 104.278ZM72.5692 118.568C72.465 117.215 72.3464 115.598 72.2227 114.047C73.4222 113.844 74.9061 113.566 76.3182 113.314C76.6005 114.615 76.9394 116.085 77.2267 117.321C75.6635 117.725 73.9568 118.183 72.5717 118.536L72.5692 118.568ZM75.5718 131.956C75.3613 130.627 75.0992 129.065 74.8591 127.669C76.0881 127.534 77.5965 127.388 78.9986 127.267C79.291 128.438 79.6053 129.775 79.8926 131.011C78.4754 131.327 76.9173 131.666 75.5693 131.988L75.5718 131.956ZM81.7216 123.574C81.4368 122.305 81.125 120.936 80.8402 119.668C82.0717 119.5 83.4442 119.311 84.745 119.15C85.0373 120.32 85.3567 121.592 85.6415 122.86C84.2986 123.117 82.9928 123.344 81.7216 123.574ZM83.8922 137.816C83.7829 136.528 83.6669 134.879 83.5407 133.36C84.8465 133.133 86.4022 132.827 87.8168 132.543C88.0991 133.844 88.3763 135.21 88.597 136.408C86.9941 136.875 85.2849 137.366 83.8576 137.813L83.8922 137.816ZM90.193 129.282C89.9429 128.016 89.6386 126.549 89.3588 125.215C90.6646 124.988 92.1114 124.739 93.489 124.485C93.7712 125.786 94.056 127.055 94.3754 128.326C93.03 128.616 91.541 128.96 90.193 129.282ZM92.8961 142.941C92.683 141.646 92.448 140.184 92.2375 138.855C93.469 138.688 94.8786 138.469 96.3229 138.253C96.6152 139.424 96.9271 140.793 97.2094 142.094C95.7947 142.378 94.239 142.685 92.8961 142.941ZM99.0409 134.625C98.7215 133.354 98.4417 132.02 98.1223 130.748C99.3538 130.581 100.692 130.39 101.958 130.225C102.282 131.431 102.599 132.735 102.951 134.042C101.647 134.236 100.31 134.428 99.0409 134.625ZM104.882 126.187C104.683 125.154 104.457 124.021 104.232 122.889C105.471 122.624 106.814 122.367 108.159 122.077C108.35 123.207 108.571 124.405 108.826 125.606C107.557 125.803 106.22 125.995 104.919 126.157L104.882 126.187ZM107.21 140.638C107.029 139.377 106.804 137.785 106.606 136.293C107.949 136.036 109.47 135.728 110.882 135.476C111.128 136.807 111.358 138.334 111.603 139.665C110.186 139.982 108.627 140.321 107.208 140.67L107.21 140.638ZM110.665 118.498C110.377 117.262 110.095 115.961 109.813 114.66C111.084 114.43 112.499 114.146 113.876 113.892C114.158 115.193 114.438 116.527 114.693 117.728C113.353 117.952 111.973 118.239 110.632 118.463L110.665 118.498ZM113.211 132.376C113.065 131.118 112.857 129.757 112.686 128.365C113.883 128.196 115.221 128.004 116.487 127.839C116.78 129.01 117.064 130.279 117.386 131.518C116.043 131.775 114.626 132.091 113.211 132.376ZM115.872 146.13C115.723 144.905 115.52 143.479 115.315 142.085C116.621 141.858 118.139 141.582 119.41 141.352C119.792 142.727 120.165 144.199 120.487 145.438C119.043 145.654 117.423 145.89 115.872 146.13ZM121.131 133.973C122.545 133.689 124.064 133.412 125.372 133.153C125.815 134.63 126.319 136.211 126.7 137.586C125.335 137.677 123.624 137.742 121.945 137.841C121.661 136.573 121.383 135.206 121.093 134.003L121.131 133.973ZM4.42434 97.9736C3.79127 98.0558 3.28077 98.8037 2.72124 99.2853C3.20505 99.782 3.62649 100.635 4.14564 100.675C4.734 100.72 5.40998 100.084 6.53841 99.4495C5.4839 98.6789 4.88184 97.9106 4.42434 97.9736ZM0.631071 85.8043C0.603307 86.163 1.16644 86.5347 1.48477 86.9202C1.89324 86.5909 2.50432 86.3429 2.64097 85.927C2.7329 85.6389 2.17734 85.1694 1.70615 84.5097C1.17366 85.0918 0.624224 85.4429 0.631071 85.8043ZM13.1517 71.5842C13.9603 71.4828 14.6785 70.751 15.4457 70.2855C15.4659 70.0246 15.4886 69.7311 15.5088 69.4702C14.7827 68.9548 14.0768 68.1784 13.2883 68.0189C12.1217 67.7974 11.3293 68.5891 11.3102 69.7358C11.2539 70.9124 11.9919 71.7241 13.1863 71.5869L13.1517 71.5842ZM7.35193 79.0416C7.79429 79.1742 8.54201 78.5103 9.59365 77.9684C8.71471 77.1787 8.18945 76.3179 7.69986 76.3456C7.07184 76.3626 6.49464 77.0725 5.87093 77.4835C6.3497 78.0454 6.70444 78.8602 7.31732 79.0389L7.35193 79.0416ZM146.244 56.4605C143.579 56.2543 141.317 58.0475 141.09 60.5232C140.891 63.0994 142.846 65.2847 145.582 65.4637C148.213 65.6673 150.48 63.8088 150.64 61.2951C150.832 58.8167 148.875 56.6641 146.247 56.4279L146.244 56.4605ZM178.814 96.7409C178.571 98.9857 180.237 100.853 182.59 101.035C184.875 101.212 186.769 99.6857 186.97 97.5361C187.136 95.3838 185.572 93.5568 183.29 93.3474C181.008 93.138 179.05 94.594 178.849 96.7436L178.814 96.7409ZM180.767 79.6034C178.456 79.326 176.466 80.7467 176.198 82.8584C175.925 85.0352 177.416 86.9221 179.655 87.2267C181.964 87.5366 183.984 86.1838 184.321 84.0775C184.668 81.8408 183.113 79.8833 180.802 79.606L180.767 79.6034ZM170.044 90.846C169.788 93.2538 171.614 95.2979 174.141 95.4934C176.633 95.6863 178.675 94.0401 178.892 91.6948C179.073 89.3468 177.346 87.376 174.891 87.1532C172.402 86.9277 170.293 88.536 170.044 90.846ZM37.0059 94.9183C37.1599 92.9291 35.4619 91.0261 33.3507 90.8627C31.2395 90.6993 29.2368 92.283 29.0828 94.2723C28.9289 96.2615 30.6269 98.1645 32.7381 98.3279C34.8493 98.4913 36.852 96.9076 37.0059 94.9183ZM189.33 85.4822C187.254 85.3215 185.511 86.6957 185.359 88.6523C185.208 90.6089 186.681 92.2649 188.758 92.4256C190.835 92.5863 192.577 91.2121 192.729 89.2555C192.88 87.2989 191.407 85.6429 189.33 85.4822ZM179.693 122.726C182.044 122.94 184.042 121.422 184.213 119.204C184.385 116.987 182.754 115.122 180.366 114.937C178.081 114.76 176.155 116.251 175.922 118.366C175.681 120.578 177.308 122.508 179.659 122.723L179.693 122.726ZM195.32 103.005C195.464 101.146 193.991 99.4902 192.023 99.2723C189.986 99.049 188.135 100.48 187.986 102.404C187.842 104.263 189.315 105.919 191.283 106.137C193.32 106.36 195.137 104.926 195.32 103.005ZM160.964 85.3536C160.775 87.7994 162.762 90.0199 165.357 90.2208C167.953 90.4217 170.293 88.536 170.45 86.0549C170.636 83.6417 168.677 81.5217 166.121 81.2583C163.527 81.0247 161.158 82.8425 160.932 85.3183L160.964 85.3536ZM189.876 110.818C189.963 108.791 188.226 106.95 186.075 106.849C183.924 106.749 181.988 108.37 181.901 110.397C181.813 112.425 183.551 114.265 185.702 114.366C187.853 114.467 189.789 112.845 189.911 110.82L189.876 110.818ZM129.199 45.4636C126.718 45.1402 124.322 46.8575 123.93 49.222C123.535 51.6192 125.408 53.9621 127.989 54.3587C130.537 54.7199 133.005 52.9754 133.333 50.5403C133.658 48.1378 131.751 45.7922 129.162 45.4935L129.199 45.4636ZM137.831 150.323C139.06 148.384 138.632 145.825 136.76 144.368C134.89 142.878 132.139 142.895 130.205 144.484C129.908 144.723 129.611 144.963 129.311 145.235C129.175 145.651 128.966 146.094 128.864 146.513C128.193 148.888 129.299 151.238 131.56 152.167C133.853 153.132 136.527 152.322 137.794 150.353L137.831 150.323ZM127.488 160.25C130.118 160.454 132.42 158.598 132.612 156.12C132.804 153.641 130.745 151.448 128.145 151.312C125.581 151.147 123.35 152.975 123.129 155.386C122.903 157.861 124.889 160.082 127.52 160.285L127.488 160.25ZM163.385 68.0226C160.824 67.8243 158.556 69.6828 158.438 72.1013C158.291 74.452 160.219 76.5367 162.711 76.7296C165.272 76.9278 167.54 75.0693 167.657 72.6508C167.77 70.2975 165.874 68.248 163.382 68.0552L163.385 68.0226ZM141.609 157.734C144.064 157.957 146.322 156.229 146.607 153.889C146.895 151.517 144.946 149.266 142.422 149.038C139.967 148.815 137.709 150.543 137.424 152.883C137.136 155.256 139.085 157.506 141.609 157.734ZM155.012 62.388C152.416 62.1871 150.08 64.0403 149.888 66.5187C149.703 68.8992 151.624 71.0818 154.18 71.3452C156.77 71.6114 159.142 69.7609 159.366 67.3178C159.59 64.8747 157.605 62.6216 155.01 62.4207L155.012 62.388ZM137.862 50.9564C135.231 50.7529 132.937 52.5108 132.676 54.9839C132.414 57.4569 134.297 59.6694 136.923 59.9382C139.652 60.215 141.986 58.3946 142.218 55.8536C142.41 53.3752 140.489 51.1926 137.862 50.9564ZM32.3518 151.903C32.4629 150.468 31.4733 149.309 29.9504 149.191C28.4276 149.073 27.2072 149.996 27.0962 151.43C26.9851 152.865 27.9748 154.024 29.4976 154.142C31.0204 154.26 32.2408 153.338 32.3518 151.903ZM172.098 73.7491C169.745 73.5669 167.663 75.2757 167.459 77.458C167.248 79.738 169.072 81.8147 171.46 81.9995C173.883 82.1871 176.034 80.4836 176.211 78.2009C176.387 75.9181 174.524 73.904 172.101 73.7165L172.098 73.7491ZM57.9375 120.027C58.2652 117.592 56.3552 115.279 53.767 114.981C51.1789 114.682 48.7778 116.464 48.4821 118.935C48.189 121.372 50.1708 123.658 52.764 123.892C55.2854 124.152 57.6148 122.397 57.9375 120.027ZM55.4281 137.155C57.9842 137.418 60.2814 135.628 60.4682 133.214C60.6499 130.866 58.8261 128.79 56.3417 128.499C53.7857 128.236 51.4884 130.026 51.3016 132.439C51.1199 134.787 52.9412 136.897 55.4281 137.155ZM152.556 145.853C152.74 143.472 150.783 141.32 148.262 141.059C145.671 140.793 143.3 142.643 143.076 145.086C142.852 147.53 144.836 149.783 147.466 149.986C150.062 150.187 152.402 148.301 152.591 145.856L152.556 145.853ZM46.7144 131.428C49.1371 131.616 51.2883 129.912 51.465 127.629C51.6417 125.347 49.7782 123.333 47.3555 123.145C45.0366 122.966 42.92 124.672 42.7163 126.854C42.4729 129.099 44.3288 131.211 46.7169 131.396L46.7144 131.428ZM181.483 105.444C181.66 103.161 179.834 101.117 177.411 100.93C175.057 100.748 172.946 102.389 172.705 104.601C172.459 106.878 174.248 108.952 176.666 109.205C179.086 109.425 181.269 107.757 181.449 105.442L181.483 105.444ZM72.6723 148.725C75.3373 148.931 77.5974 147.17 77.8238 144.695C78.0528 142.186 76.1673 140.006 73.542 139.738C70.8821 139.466 68.5874 141.224 68.2917 143.694C68.0231 146.265 69.9382 148.513 72.6723 148.725ZM38.2877 125.593C40.6386 125.807 42.6042 124.254 42.7387 122.066C42.9052 119.914 41.2663 118.147 38.9821 117.97C36.6978 117.793 34.8066 119.287 34.6054 121.437C34.4388 123.589 36.0034 125.416 38.2505 125.623L38.2877 125.593ZM48.8726 114.339C49.0864 112.027 47.3639 109.991 44.9116 109.735C42.3902 109.474 40.2043 111.175 40.0201 113.556C39.8409 115.871 41.6031 117.845 44.0578 118.067C46.5151 118.258 48.6242 116.649 48.838 114.337L48.8726 114.339ZM35.696 111.843C37.9803 112.02 39.9037 110.561 40.1048 108.412C40.306 106.262 38.7414 104.435 36.4622 104.193C34.183 103.951 32.225 105.407 31.9917 107.521C31.7509 109.734 33.3797 111.631 35.696 111.843ZM154.974 129.014C154.774 131.59 156.764 133.778 159.503 133.924C162.136 134.095 164.369 132.234 164.529 129.721C164.723 127.21 162.728 125.087 160.061 124.913C157.396 124.707 155.165 126.535 154.939 129.011L154.974 129.014ZM175.885 113.901C176.237 111.599 174.492 109.398 171.981 109.006C169.47 108.615 167.079 110.267 166.716 112.7C166.364 115.002 168.109 117.203 170.62 117.595C173.131 117.986 175.522 116.334 175.885 113.901ZM173.414 99.9316C173.604 97.4858 171.582 95.2626 168.987 95.0617C166.391 94.8608 164.049 96.7791 163.929 99.2303C163.779 101.614 165.736 103.766 168.26 103.994C170.854 104.228 173.225 102.377 173.417 99.899L173.414 99.9316ZM89.9224 159.77C92.5181 159.971 94.8575 158.086 95.0147 155.604C95.199 153.224 93.2418 151.071 90.6857 150.808C88.095 150.542 85.721 152.425 85.5317 154.871C85.3424 157.316 87.3292 159.537 89.9249 159.738L89.9224 159.77ZM81.1218 154.267C83.7521 154.47 86.0494 152.68 86.2758 150.204C86.4702 147.693 84.5821 145.546 81.9568 145.277C79.2277 145 76.8908 146.853 76.726 149.432C76.5342 151.911 78.4914 154.063 81.1564 154.269L81.1218 154.267ZM170.275 121.603C170.464 119.157 168.48 116.904 165.884 116.703C163.288 116.502 160.949 118.388 160.794 120.836C160.61 123.217 162.567 125.37 165.089 125.63C167.679 125.897 170.051 124.046 170.277 121.57L170.275 121.603ZM95.8247 49.7697C96.014 47.3239 93.9555 45.1306 91.3572 44.9623C88.759 44.7941 86.4516 46.715 86.3315 49.1662C86.2165 51.5521 88.1763 53.6722 90.7003 53.9003C93.296 54.1012 95.6329 52.2481 95.8222 49.8023L95.8247 49.7697ZM63.7636 142.819C66.3518 143.118 68.7554 141.303 69.0139 138.862C69.2724 136.422 67.2881 134.169 64.6974 133.903C62.1042 133.669 59.7327 135.519 59.5434 137.965C59.3592 140.346 61.2447 142.526 63.7636 142.819ZM213.172 105.83C213.072 106.216 213.936 107.201 214.453 107.274C215.039 107.352 215.749 106.718 217.013 106.127C215.929 105.289 215.33 104.488 214.771 104.51C214.178 104.53 213.319 105.284 213.172 105.83ZM211.637 126.116C211.117 126.076 210.152 126.854 210.005 127.401C209.896 127.917 210.644 128.598 211.29 129.698C212.132 128.714 213.008 128.191 212.979 127.664C212.953 127.104 212.153 126.189 211.637 126.116ZM209.066 111.647C207.751 111.545 206.674 112.413 206.647 113.658C206.615 114.967 207.398 115.651 208.703 115.884C210.06 115.89 210.907 115.3 211.109 114.036C211.309 112.805 210.381 111.749 209.066 111.647ZM217.395 118.295C216.937 118.358 216.309 118.834 216.244 119.223C216.181 119.579 216.737 120.048 217.27 120.811C217.78 120.064 218.298 119.677 218.33 119.253C218.356 118.927 217.674 118.284 217.392 118.328L217.395 118.295ZM158.214 106.038C157.543 108.414 158.652 110.73 160.91 111.693C163.203 112.657 165.877 111.847 167.144 109.879C168.373 107.94 167.944 105.381 166.072 103.923C164.206 102.401 161.451 102.45 159.518 104.039C159.221 104.279 158.924 104.518 158.624 104.79C158.488 105.206 158.282 105.617 158.177 106.068L158.214 106.038ZM188.522 157.56C187.092 157.58 186.172 158.231 186.034 159.565C185.928 160.935 186.7 161.749 188.112 161.957C189.488 162.162 190.679 161.171 190.674 159.892C190.676 158.514 189.898 157.765 188.487 157.557L188.522 157.56ZM194.246 149.276C192.814 149.33 191.963 149.986 191.79 151.317C191.622 152.584 192.716 153.751 194.073 153.758C195.5 153.77 196.356 153.048 196.529 151.717C196.697 150.45 195.633 149.351 194.246 149.276ZM205.903 133.612C205.145 133.52 204.243 134.369 203.407 134.829C203.387 135.09 203.366 135.351 203.346 135.612C204.07 136.16 204.699 137.029 205.519 137.223C206.75 137.516 207.79 136.677 207.636 135.517C207.553 134.789 206.559 133.695 205.869 133.609L205.903 133.612ZM182.306 165.444C181.013 165.508 180.065 166.058 179.956 167.46C179.858 168.732 180.559 169.574 181.94 169.714C183.389 169.891 184.312 169.208 184.453 167.841C184.594 166.474 183.818 165.693 182.308 165.412L182.306 165.444ZM176.169 173.663C175.594 174.34 174.678 174.925 174.479 175.697C174.181 176.855 175.079 177.843 176.308 177.709C177.08 177.637 178.231 176.709 178.316 176.06C178.406 175.345 177.497 174.487 177.002 173.694C176.725 173.673 176.448 173.652 176.171 173.63L176.169 173.663ZM154.5 84.2956L154.436 84.225C154.879 84.3577 155.35 84.5582 155.795 84.6583C158.321 85.313 160.768 84.2886 161.768 82.168C162.77 80.0147 161.886 77.4859 159.789 76.241C157.722 75.064 155.009 75.4773 153.483 77.1964C151.92 78.9454 151.963 81.5403 153.666 83.3781C153.955 83.6957 154.246 83.9807 154.503 84.263C154.503 84.263 154.471 84.2277 154.439 84.1924L154.503 84.263L154.5 84.2956ZM201.567 156.798C201.604 157.227 202.006 157.882 202.413 158.012C202.787 158.139 203.346 157.657 204.21 157.298C203.526 156.687 203.148 156.166 202.701 156.098C202.355 156.072 201.585 156.57 201.599 156.833L201.567 156.798ZM200.138 141.531C198.827 141.364 197.716 142.229 197.689 143.474C197.66 144.751 198.329 145.557 199.708 145.73C201.018 145.897 202.095 145.029 202.174 143.559C202.117 142.504 201.517 141.703 200.138 141.531ZM195.707 165.038C196.023 165.456 196.257 166.032 196.697 166.197C196.966 166.316 197.525 165.835 198.25 165.464C197.665 164.927 197.328 164.343 196.947 164.314C196.566 164.284 196.11 164.774 195.709 165.005L195.707 165.038ZM12.7634 107.641C14.2491 107.788 15.5463 106.773 15.6202 105.369C15.7237 104.031 14.6277 102.897 13.2433 102.79C11.8243 102.68 10.6014 103.635 10.4633 104.969C10.3599 106.306 11.3495 107.466 12.7634 107.641ZM64.478 120.993L64.4138 120.922C64.4138 120.922 64.4459 120.958 64.478 120.993ZM107.645 148.971C107.645 148.971 107.645 148.971 107.612 148.936L107.677 149.006L107.645 148.971ZM10.3124 89.3749C9.03943 89.178 7.88828 90.1059 7.86412 91.3178C7.8349 92.595 8.61506 93.3115 9.6804 93.4923C11.0994 93.6022 12.2084 92.7694 12.2621 91.6254C12.3605 90.3536 11.6572 89.5446 10.3149 89.3423L10.3124 89.3749ZM111.272 56.2142C111.272 56.2142 111.272 56.2142 111.304 56.2495C111.304 56.2495 111.272 56.2142 111.24 56.179L111.272 56.2142ZM106.285 148.538C103.76 147.883 101.313 148.907 100.313 151.028C99.3107 153.181 100.16 155.707 102.294 156.922C104.362 158.099 107.072 157.719 108.6 155.967C110.163 154.218 110.12 151.623 108.417 149.785C108.16 149.503 107.904 149.221 107.612 148.936C107.17 148.803 106.698 148.603 106.219 148.5L106.285 148.538ZM169.097 183.613C169.222 184.246 170.123 184.743 170.671 185.31C171.199 184.793 172.104 184.338 172.184 183.754C172.227 183.2 171.44 182.581 170.719 181.541C169.914 182.496 168.993 183.146 169.097 183.613ZM211.945 93.7937C212.65 93.6842 213.62 92.8408 213.772 92.2292C213.889 91.6149 213.042 90.8605 212.645 90.1408C212.368 90.1194 212.057 90.0953 211.78 90.0739C211.245 90.6886 210.436 91.2492 210.242 91.956C209.946 93.0813 210.78 93.9988 211.945 93.7937ZM208.861 80.1046C210.107 80.201 210.991 79.5805 210.837 78.4204C210.754 77.6922 210.003 77.0436 209.569 76.3539C209.292 76.3325 208.981 76.3084 208.704 76.2869C208.201 76.9369 207.426 77.5003 207.23 78.2396C206.976 79.2698 207.684 80.0135 208.861 80.1046ZM64.4805 120.96C64.4805 120.96 64.4484 120.925 64.4164 120.89L64.4805 120.96ZM85.7424 52.7293C82.9415 52.4797 80.6021 54.3654 80.4323 57.0095C80.2228 59.7162 82.4739 62.1212 85.3497 61.8517C86.8235 61.7033 88.1578 60.6584 89.5657 60.0128C89.7546 59.3713 90.0473 58.7379 90.1324 58.0883C90.5867 55.3678 88.61 53.0168 85.7424 52.7293ZM89.5657 60.0128L89.6399 59.953C89.6399 59.953 89.6399 59.953 89.5682 59.9802L89.5657 60.0128ZM113.524 56.815C116.317 57.1624 118.723 55.3146 118.96 52.7085C119.164 50.067 117.177 47.8465 114.371 47.6621C111.568 47.4451 109.325 49.4367 109.19 52.0835C109.053 53.8445 110.144 55.0443 111.27 56.2468C112.021 56.4362 112.762 56.756 113.556 56.8503L113.524 56.815ZM56.4297 93.1738C53.6288 92.9243 51.2894 94.81 51.1195 97.4541C50.91 100.161 53.1611 102.566 56.037 102.296C57.5108 102.148 58.8797 101.106 60.2529 100.457C60.4418 99.8159 60.7346 99.1825 60.8222 98.5003C61.2765 95.7798 59.2998 93.4288 56.4322 93.1412L56.4297 93.1738ZM60.2504 100.49C60.2504 100.49 60.2875 100.46 60.3246 100.43L60.2504 100.49ZM56.756 124.496C56.5516 127.137 58.573 129.361 61.3789 129.545C64.1156 129.724 66.3487 127.863 66.5827 125.289C66.724 123.463 65.7099 122.171 64.5151 120.963C63.6971 120.736 62.8841 120.443 62.056 120.346C59.3269 120.069 57.0246 121.925 56.7906 124.499L56.756 124.496ZM60.2504 100.49L60.3246 100.43C60.3246 100.43 60.29 100.427 60.2529 100.457L60.2504 100.49ZM127.381 188.619C125.853 188.566 124.697 189.56 124.621 190.997C124.51 192.432 125.606 193.567 127.131 193.652C128.654 193.77 129.845 192.779 129.99 191.347C130.106 189.847 128.981 188.644 127.384 188.586L127.381 188.619ZM67.0439 185.458C65.7363 185.259 64.5902 186.121 64.561 187.398C64.4947 188.706 65.2748 189.422 66.5799 189.654C67.9373 189.661 68.8184 189.073 68.9886 187.774C69.1241 186.472 68.4208 185.663 67.0439 185.458ZM76.1024 179.533C76.2261 177.935 74.8439 176.45 73.148 176.319C71.3829 176.182 69.7439 177.564 69.7216 179.203C69.6671 180.806 71.0865 182.261 72.7528 182.324C74.4512 182.423 76.0159 181.101 76.1024 179.533ZM75.3996 190.862C74.7929 191.504 73.8451 192.054 73.614 192.79C73.2488 193.91 74.0729 194.958 75.3315 194.892C76.1005 194.853 77.3158 193.995 77.4355 193.349C77.5602 192.636 76.6889 191.749 76.2649 190.929C75.988 190.907 75.7111 190.886 75.4343 190.864L75.3996 190.862ZM67.4132 173.939C67.5073 172.273 66.0584 170.751 64.2883 170.679C62.5206 170.575 60.9188 171.927 60.8593 173.596C60.7652 175.262 62.2141 176.785 63.9843 176.856C65.7519 176.96 67.3191 175.605 67.4132 173.939ZM82.4982 198.563C82.495 199.055 83.3959 200.01 83.8162 199.977C84.4468 199.927 85.3355 199.242 85.4476 198.693C85.5572 198.176 84.7745 197.492 84.0593 196.387C83.2467 197.44 82.4719 198.003 82.4957 198.595L82.4982 198.563ZM81.7622 182.431C80.0764 182.169 78.5665 183.233 78.3736 184.826C78.1807 186.419 79.3603 187.822 81.0537 187.986C82.6804 188.112 84.0813 187.105 84.2692 185.578C84.457 184.05 83.3787 182.687 81.7942 182.466L81.7622 182.431ZM90.4362 188.22C88.9184 188.037 87.6288 188.954 87.4511 190.351C87.2708 191.781 88.2554 193.005 89.7386 193.185C91.2564 193.368 92.5459 192.451 92.7237 191.054C92.904 189.625 91.9194 188.4 90.4362 188.22ZM58.6713 179.824C57.2523 179.714 56.1087 180.544 56.0153 181.751C55.9093 183.12 56.6102 183.962 58.0191 184.202C59.3934 184.44 60.6163 183.484 60.6455 182.207C60.7169 180.835 59.9418 180.053 58.6342 179.854L58.6713 179.824ZM91.7192 204.033C91.6939 204.359 92.2639 205.093 92.5087 205.079C92.9637 205.048 93.6566 204.643 93.7536 204.289C93.8505 203.936 93.3667 203.439 92.9082 202.616C92.2989 203.291 91.7148 203.639 91.6845 204.031L91.7192 204.033ZM41.3376 168.509C40.0225 168.407 38.9456 169.275 38.9189 170.52C38.8871 171.83 39.6698 172.514 40.9749 172.746C42.3323 172.752 43.1788 172.162 43.381 170.898C43.5808 169.667 42.6528 168.611 41.3376 168.509ZM41.4614 157.463C41.5851 155.865 40.3658 154.524 38.6674 154.426C37.0382 154.332 35.6989 155.442 35.5802 156.975C35.4566 158.573 36.6758 159.914 38.3742 160.013C40.0034 160.106 41.3428 158.996 41.4614 157.463ZM42.8012 184.238C42.7734 184.597 43.3366 184.968 43.6549 185.354C44.0634 185.025 44.6744 184.777 44.8111 184.361C44.9005 184.105 44.3475 183.603 43.8763 182.943C43.3438 183.525 42.7943 183.877 42.8012 184.238ZM50.0839 163.019C50.2075 161.421 48.8971 159.909 47.2037 159.745C45.5078 159.613 43.9161 160.835 43.7578 162.431C43.6342 164.028 44.9447 165.541 46.638 165.704C48.3339 165.836 49.9256 164.614 50.0839 163.019ZM51.5621 189.804C51.5344 190.163 52.0975 190.535 52.4183 190.887C52.8268 190.558 53.4058 190.275 53.5425 189.859C53.6319 189.604 53.0788 189.101 52.6051 188.474C52.1072 189.059 51.5553 189.443 51.5621 189.804ZM49.5964 174.266C48.1673 174.287 47.3106 175.008 47.2418 176.347C47.1704 177.72 48.0198 178.442 49.3966 178.647C50.8257 178.626 51.7118 177.973 51.8499 176.638C51.9855 175.337 50.9562 174.24 49.5617 174.263L49.5964 174.266ZM58.9933 168.465C59.1221 166.802 57.6731 165.279 55.9055 165.175C54.1404 165.038 52.5386 166.391 52.4445 168.057C52.3158 169.72 53.7647 171.242 55.5323 171.346C57.2974 171.483 58.8992 170.131 58.9933 168.465ZM168.173 167.205C166.546 167.079 165.21 168.156 165.056 169.686C164.898 171.281 166.046 172.65 167.776 172.784C169.472 172.915 170.88 171.81 171.004 170.212C171.128 168.614 169.906 167.306 168.208 167.207L168.173 167.205ZM142.177 186.385C140.694 186.205 139.399 187.187 139.291 188.589C139.187 189.926 140.142 191.083 141.559 191.225C143.042 191.406 144.337 190.423 144.445 189.021C144.549 187.684 143.594 186.528 142.177 186.385ZM150.726 180.748C150.85 179.15 149.628 177.842 147.932 177.711C146.167 177.574 144.719 178.741 144.624 180.407C144.53 182.073 145.856 183.389 147.626 183.461C149.292 183.524 150.671 182.351 150.726 180.748ZM136.252 195.014C135.515 195.088 134.55 195.866 134.326 196.505C133.963 197.592 134.778 198.312 136.412 198.799C136.947 198.184 137.756 197.623 137.95 196.917C138.244 195.824 137.481 194.879 136.287 195.016L136.252 195.014ZM136.342 183.506C136.471 181.843 135.056 180.323 133.291 180.186C131.526 180.049 129.927 181.369 129.798 183.032C129.669 184.695 131.084 186.215 132.849 186.352C134.614 186.489 136.213 185.169 136.342 183.506ZM148.628 194.364C149.181 194.866 149.706 195.727 150.292 195.805C150.88 195.851 151.529 195.114 152.628 194.411C151.608 193.643 150.907 192.802 150.413 192.895C149.742 193.007 149.224 193.853 148.662 194.367L148.628 194.364ZM163.8 191.766C164.116 192.184 164.384 192.762 164.824 192.928C165.094 193.047 165.656 192.533 166.346 192.16C165.761 191.622 165.421 191.071 165.04 191.042C164.625 191.009 164.238 191.504 163.8 191.766ZM156.773 184.037C155.468 183.805 154.325 184.635 154.194 185.872C154.064 187.108 154.957 188.162 156.275 188.231C157.659 188.338 158.412 187.609 158.681 186.383C158.712 185.073 158.115 184.24 156.741 184.002L156.773 184.037ZM162.431 175.716C160.839 175.593 159.608 176.646 159.562 178.151C159.52 179.592 160.618 180.694 162.109 180.776C163.634 180.861 164.791 179.868 164.902 178.433C165.013 176.999 163.951 175.867 162.428 175.749L162.431 175.716ZM104.638 185.12C102.944 184.956 101.504 186.026 101.279 187.583C101.046 189.238 102.258 190.677 104.021 190.846C105.714 191.01 107.155 189.94 107.38 188.383C107.612 186.728 106.4 185.289 104.638 185.12ZM99.2812 182.803C99.4201 181.009 98.1788 179.502 96.2803 179.29C94.3818 179.077 92.7606 180.231 92.5204 181.984C92.2727 183.835 93.541 185.442 95.4741 185.657C97.4418 185.875 99.0707 184.624 99.2466 182.8L99.2812 182.803ZM105.485 201.621C105.447 202.111 106.246 203.025 106.827 203.169C107.376 203.277 108.091 202.578 109.287 201.981C108.235 201.178 107.672 200.347 107.113 200.37C106.52 200.389 105.557 201.135 105.482 201.654L105.485 201.621ZM98.7169 194.143C97.4018 194.041 96.3249 194.909 96.2982 196.154C96.2664 197.463 97.0145 198.144 98.3542 198.379C99.7116 198.386 100.558 197.795 100.76 196.532C100.96 195.301 100.032 194.245 98.7169 194.143ZM113.47 191.118C111.989 190.905 110.697 191.855 110.519 193.252C110.381 194.586 111.334 195.775 112.748 195.95C114.228 196.163 115.555 195.216 115.698 193.817C115.836 192.482 114.881 191.326 113.47 191.118ZM119.729 199.312C119.852 199.978 120.753 200.933 121.44 201.052C122.093 201.168 122.885 200.376 123.645 200.009C123.665 199.748 123.688 199.454 123.708 199.193C123.051 198.683 122.449 197.915 121.697 197.726C120.501 197.436 119.536 198.214 119.729 199.312ZM122.161 185.886C122.29 184.223 120.876 182.703 119.111 182.566C117.345 182.429 115.746 183.749 115.617 185.412C115.489 187.075 116.903 188.595 118.668 188.732C120.433 188.869 122.032 187.549 122.161 185.886ZM32.5886 163.239C31.3798 163.113 30.3948 163.693 30.4795 164.847C30.5228 165.638 31.2658 166.385 31.6923 167.172C31.9692 167.194 32.2461 167.215 32.555 167.272C33.1618 166.63 34.075 166.077 34.274 165.305C34.6021 164.215 33.8295 163.401 32.6207 163.274L32.5886 163.239ZM130.088 41.6284C129.914 43.8786 131.842 45.9633 134.198 46.1128C136.522 46.2271 138.641 44.4884 138.775 42.3008C138.944 40.1159 137.046 38.099 134.727 37.9196C132.409 37.7401 130.257 39.4435 130.088 41.6284ZM208.456 100.183C208.559 98.8462 207.533 97.717 206.116 97.5745C204.63 97.4267 203.37 98.4118 203.262 99.8141C203.158 101.151 204.185 102.28 205.602 102.423C207.087 102.571 208.347 101.586 208.456 100.183ZM202.875 124.159C204.398 124.277 205.621 123.322 205.732 121.887C205.843 120.452 204.818 119.29 203.296 119.172C201.773 119.054 200.55 120.009 200.439 121.444C200.328 122.879 201.352 124.041 202.875 124.159ZM206.272 66.3226C206.821 66.4306 207.536 65.7315 208.736 65.0698C207.613 64.2939 207.008 63.5582 206.417 63.5453C205.898 63.5051 204.89 64.3785 204.932 64.7426C204.99 65.3376 205.726 66.1819 206.306 66.3252L206.272 66.3226ZM203.604 52.2064C204.013 51.8771 204.624 51.6292 204.76 51.2133C204.85 50.9577 204.297 50.4557 203.86 49.7985C203.328 50.3806 202.778 50.7318 202.75 51.0905C202.723 51.4492 203.283 51.8535 203.57 52.2037L203.604 52.2064ZM196.96 132.657C198.651 132.854 200.096 131.719 200.255 130.124C200.373 128.591 199.255 127.291 197.634 127.099C195.943 126.903 194.497 128.038 194.373 129.636C194.255 131.168 195.373 132.469 196.994 132.66L196.96 132.657ZM182.865 154.169C182.994 152.506 181.649 150.992 179.923 150.792C178.161 150.623 176.532 151.875 176.336 153.5C176.133 155.223 177.543 156.808 179.377 156.95C181.142 157.087 182.739 155.8 182.868 154.137L182.865 154.169ZM188.636 146.185C188.765 144.522 187.348 143.034 185.583 142.898C183.818 142.761 182.221 144.048 182.058 145.709C181.924 147.437 183.37 148.992 185.172 149.099C186.943 149.171 188.507 147.848 188.599 146.215L188.636 146.185ZM194.392 137.937C194.479 136.369 193.097 134.884 191.438 134.723C189.707 134.589 188.036 135.936 187.98 137.572C187.893 139.14 189.275 140.625 190.934 140.786C192.664 140.92 194.335 139.573 194.392 137.937ZM186.753 42.307C187.327 41.6297 188.241 41.0771 188.44 40.3052C188.733 39.2125 187.958 38.4308 186.715 38.3017C185.503 38.208 184.553 38.7905 184.638 39.9453C184.716 40.7387 185.459 41.4851 185.888 42.24C186.164 42.2615 186.476 42.2856 186.753 42.307ZM177.648 36.6815C179.003 36.7207 179.818 36.0948 179.988 34.7957C180.153 33.5619 179.222 32.5385 177.662 32.4506C176.579 32.498 175.701 33.0533 175.531 34.3524C175.365 35.5862 176.293 36.6422 177.614 36.6788L177.648 36.6815ZM198.056 72.6087C197.952 73.9457 198.977 75.1076 200.359 75.2474C201.844 75.3952 203.109 74.3449 203.181 72.9725C203.25 71.6328 202.188 70.5009 200.767 70.4237C199.348 70.3139 198.157 71.3043 198.019 72.6386L198.056 72.6087ZM173.556 165.128C175.218 165.257 176.812 164.002 176.97 162.407C177.091 160.842 175.783 159.297 174.09 159.133C172.431 158.972 170.805 160.191 170.58 161.748C170.384 163.373 171.791 164.991 173.522 165.125L173.556 165.128ZM175.11 21.788C175.491 21.8174 175.942 21.393 176.635 20.9874C176.015 20.4473 175.608 19.8581 175.326 19.9019C174.868 19.9649 174.479 20.4925 174.071 20.8218C174.426 21.1774 174.698 21.7232 175.11 21.788ZM177.455 47.7221C177.337 49.2548 178.452 50.5878 180.042 50.7436C181.732 50.9401 183.176 49.8379 183.334 48.2427C183.453 46.71 182.337 45.3771 180.75 45.1886C179.059 44.9921 177.616 46.0943 177.458 47.6895L177.455 47.7221ZM186.555 53.4129C186.444 54.8477 187.542 55.9497 189.068 56.035C190.593 56.1202 191.749 55.1271 191.826 53.6896C191.937 52.2547 190.838 51.1527 189.313 51.0675C187.787 50.9822 186.631 51.9753 186.555 53.4129ZM197.446 61.1451C198.759 61.2795 199.803 60.3761 199.882 58.906C199.822 57.8843 199.188 57.0807 197.806 56.941C196.491 56.8392 195.414 57.7072 195.387 58.9518C195.358 60.2289 196.099 61.008 197.446 61.1451ZM168.83 42.1993C168.707 43.7972 170.017 45.3093 171.71 45.4732C173.406 45.6044 174.998 44.3826 175.156 42.7873C175.28 41.1894 173.97 39.6773 172.276 39.5135C170.58 39.3822 168.989 40.6041 168.865 42.202L168.83 42.1993ZM196.447 45.7145C196.485 45.2254 195.586 44.2373 195.166 44.2704C194.535 44.32 193.615 44.9705 193.468 45.5168C193.358 46.0332 194.072 46.7117 194.782 47.8821C195.629 46.8323 196.401 46.3015 196.444 45.7472L196.447 45.7145ZM134.549 169.785C134.715 167.633 133.042 165.863 130.723 165.684C128.439 165.507 126.545 167.034 126.378 169.186C126.207 171.403 127.91 173.241 130.268 173.358C132.555 173.502 134.385 171.905 134.517 169.75L134.549 169.785ZM126.47 164.403C126.652 162.055 124.924 160.085 122.472 159.829C119.913 159.598 117.762 161.302 117.612 163.685C117.433 166 119.23 167.977 121.722 168.169C124.214 168.362 126.256 166.716 126.472 164.371L126.47 164.403ZM119.987 172.136C120.154 169.984 118.48 168.214 116.196 168.037C113.843 167.855 111.912 169.411 111.775 171.632C111.608 173.784 113.282 175.554 115.531 175.728C117.885 175.91 119.816 174.353 119.953 172.133L119.987 172.136ZM124.297 181.229C126.406 181.425 128.146 180.083 128.367 178.132C128.555 176.145 127.117 174.492 125.01 174.263C122.902 174.067 121.162 175.409 120.941 177.36C120.752 179.347 122.191 181 124.263 181.226L124.297 181.229ZM109.842 183.555C111.815 183.707 113.558 182.333 113.771 180.48C113.954 178.558 112.417 176.832 110.375 176.674C108.402 176.521 106.659 177.895 106.446 179.749C106.263 181.67 107.8 183.396 109.842 183.555ZM111.871 166.784C112.083 164.504 110.259 162.427 107.839 162.207C105.485 162.025 103.376 163.633 103.101 165.842C102.82 168.117 104.607 170.224 107.025 170.477C109.442 170.729 111.626 169.061 111.871 166.784ZM103.289 161.166C103.47 158.818 101.577 156.736 99.0904 156.478C96.5664 156.249 94.232 158.07 94.0799 160.486C93.8982 162.834 95.7912 164.916 98.2781 165.174C100.802 165.402 103.136 163.582 103.289 161.166ZM101.368 178.339C103.479 178.502 105.482 176.918 105.638 174.896C105.792 172.907 104.094 171.004 101.983 170.841C99.8369 170.675 97.8688 172.261 97.6803 174.248C97.5238 176.27 99.2243 178.14 101.368 178.339ZM149.001 167.492C149.158 165.47 147.423 163.597 145.311 163.434C143.166 163.268 141.195 164.887 141.039 166.909C140.882 168.931 142.617 170.804 144.763 170.97C146.909 171.136 148.879 169.517 148.999 167.525L149.001 167.492ZM158.768 137.575C158.89 135.091 156.931 132.971 154.263 132.797C151.596 132.624 149.365 134.452 149.205 136.966C149.011 139.477 150.971 141.597 153.636 141.803C156.37 142.015 158.64 140.124 158.805 137.545L158.768 137.575ZM140.614 162.053C140.825 159.773 139.001 157.697 136.581 157.477C134.158 157.289 132.007 158.992 131.83 161.275C131.654 163.558 133.418 165.499 135.767 165.746C138.184 165.999 140.402 164.333 140.614 162.053ZM153.33 175.897C155.204 175.977 156.729 174.717 156.833 172.921C156.972 171.127 155.622 169.678 153.755 169.5C151.782 169.348 150.188 170.602 150.044 172.461C149.9 174.32 151.317 175.807 153.33 175.897ZM168.8 156.854C168.957 154.832 167.416 153.138 165.236 152.969C163.09 152.803 161.303 154.305 161.215 156.332C161.099 158.292 162.609 159.917 164.683 160.111C166.829 160.277 168.644 158.875 168.803 156.821L168.8 156.854ZM154.965 159.26C155.137 157.043 153.469 155.208 151.115 155.026C148.762 154.843 146.831 156.4 146.624 158.615C146.453 160.832 148.121 162.667 150.475 162.849C152.828 163.032 154.759 161.475 154.965 159.26ZM139.025 178.53C140.998 178.683 142.745 177.244 142.889 175.385C143.038 173.461 141.501 171.734 139.456 171.609C137.483 171.456 135.736 172.895 135.592 174.754C135.443 176.678 136.98 178.405 139.025 178.53ZM175.078 148.613C175.195 146.654 173.556 144.887 171.482 144.693C169.336 144.527 167.368 146.114 167.281 148.141C167.164 150.1 168.803 151.867 170.877 152.061C173.023 152.227 174.991 150.64 175.113 148.616L175.078 148.613ZM83.0894 10.5324C83.5898 9.91497 84.5798 9.26986 84.5239 8.64222C84.4706 7.98198 83.5426 6.92598 82.9196 6.87776C82.2966 6.82955 81.2172 7.73018 81.0629 8.37436C80.9137 8.95331 81.7926 9.74307 82.1895 10.4627L83.0548 10.5297L83.0894 10.5324ZM68.5464 12.1953C68.9195 12.3226 69.9914 11.5198 70.0638 11.0333C70.1413 10.4816 69.4625 9.80575 68.851 8.70863C68.0139 9.62802 67.1699 10.186 67.2063 10.6153C67.2647 11.2103 67.9706 11.9867 68.5489 12.1627L68.5464 12.1953ZM105.655 14.0831C107.039 14.1903 108.267 13.1699 108.368 11.8655C108.469 10.5611 107.447 9.36661 106.031 9.22417C104.646 9.11703 103.391 10.0369 103.221 11.3359C103.046 12.7002 104.166 13.968 105.623 14.0479L105.655 14.0831ZM76.742 18.7675C78.1214 18.9398 79.4481 17.9927 79.6182 16.6937C79.7859 15.4272 78.7718 14.1349 77.3924 13.9625C76.0131 13.7902 74.6864 14.7373 74.5162 16.0363C74.346 17.3354 75.3627 18.5951 76.742 18.7675ZM70.9181 27.4368C72.6782 27.6386 74.1584 26.5065 74.2897 24.8108C74.4134 23.2129 73.2262 21.9072 71.5328 21.7433C69.837 21.612 68.4309 22.6842 68.2726 24.2795C68.149 25.8774 69.2619 27.243 70.9552 27.4068L70.9181 27.4368ZM97.0501 169.344C97.2217 167.126 95.484 165.286 93.1281 165.136C90.8413 164.992 88.9475 166.519 88.7809 168.671C88.6093 170.888 90.2406 172.753 92.5941 172.936C94.9475 173.118 96.8785 171.561 97.0526 169.311L97.0501 169.344ZM96.7952 19.2369C96.6344 20.8648 98.0436 22.4501 99.7716 22.6166C101.5 22.7832 103.171 21.4363 103.265 19.7704C103.388 18.1725 102.041 16.6904 100.385 16.4966C98.6591 16.2974 96.9585 17.5765 96.7952 19.2369ZM91.4689 16.5283C92.9917 16.6461 94.1825 15.6557 94.2615 14.1855C94.3725 12.7507 93.2766 11.6161 91.7512 11.5308C90.2284 11.4129 89.0376 12.4034 88.9586 13.8735C88.8476 15.3084 89.9435 16.443 91.4689 16.5283ZM97.2589 7.39706C97.8743 7.54311 98.736 6.75685 99.4981 6.35655C99.5183 6.09567 99.5385 5.83478 99.5612 5.54129C98.8697 5.02849 98.2035 4.18958 97.5088 4.16862C96.8858 4.1204 95.6975 5.07822 95.7314 5.54013C95.7848 6.20038 96.6114 7.21573 97.2614 7.36445L97.2589 7.39706ZM85.5588 24.9612C87.2893 25.0952 88.9553 23.8135 89.0815 22.1829C89.2026 20.6176 87.8921 19.1055 86.2384 18.8791C84.5155 18.6474 82.8149 19.9264 82.617 21.5842C82.4216 23.2094 83.8308 24.7947 85.5588 24.9612ZM49.7113 21.6291C49.6183 21.0314 48.9099 20.2876 48.3316 20.1116C47.9906 20.0196 46.9187 20.8224 46.8463 21.3089C46.8034 21.8633 47.4847 22.5065 48.1308 23.6063C48.9358 22.6517 49.7798 22.0937 49.7434 21.6644L49.7113 21.6291ZM36.616 39.6758C37.9438 39.6145 38.8249 39.0266 38.9259 37.7222C39.0243 36.4504 38.2863 35.6387 36.9416 35.469C35.6315 35.302 34.5149 36.2326 34.5229 37.4798C34.5257 38.7923 35.2738 39.4735 36.6506 39.6785L36.616 39.6758ZM42.3285 31.0963C43.1346 31.0275 43.9195 30.3337 44.7162 29.9361C44.7364 29.6752 44.7592 29.3817 44.7793 29.1208C44.0904 28.5754 43.4588 27.7391 42.6382 27.5444C41.4766 27.2577 40.6547 27.9814 40.5638 29.1554C40.4755 30.2968 41.1392 31.1683 42.3285 31.0963ZM62.1185 32.2671C61.9797 34.0607 63.3298 35.5102 65.2334 35.6575C67.2061 35.8102 68.7708 34.4879 68.8454 32.6237C68.9125 30.8574 67.5598 29.4404 65.6192 29.3231C63.7477 29.211 62.2227 30.4708 62.0839 32.2644L62.1185 32.2671ZM30.3656 47.5575C31.8192 47.67 32.6066 46.9436 32.8831 45.62C32.8828 44.2749 32.2191 43.4034 30.768 43.2583C29.3144 43.1458 28.4257 43.8315 28.2851 45.1985C28.1791 46.5682 28.9145 47.4124 30.3656 47.5575ZM50.6399 37.9727C52.2319 38.0959 53.6354 37.0563 53.8207 35.5616C54.0111 34.0016 52.8315 32.5981 51.1382 32.4342C49.5461 32.311 48.1426 33.3506 47.9573 34.8453C47.7669 36.4053 48.9465 37.8088 50.6399 37.9727ZM62.0768 21.1099C63.3447 21.372 64.5575 20.5473 64.6509 19.3407C64.7493 18.0689 64.0409 17.3252 62.9486 17.0438C61.5371 16.8361 60.3986 17.601 60.2756 18.7397C60.108 20.0061 60.7396 20.8423 62.0743 21.1425L62.0768 21.1099ZM56.4537 29.4338C57.9765 29.5517 59.1969 28.6292 59.3079 27.1943C59.419 25.7594 58.3602 24.5949 56.8348 24.5096C55.3812 24.3971 54.23 25.325 54.0548 26.6893C53.8745 28.1188 54.8962 29.3133 56.4165 29.4638L56.4537 29.4338ZM143.233 13.9407C144.445 14.0344 145.363 13.4165 145.276 12.2944C145.195 11.5336 144.452 10.7872 144.023 10.0323C143.746 10.0108 143.435 9.98674 143.158 9.96531C142.583 10.6426 141.737 11.2332 141.54 11.9725C141.247 13.0652 142.057 13.8496 143.268 13.9433L143.233 13.9407ZM151.548 31.1184C151.385 32.7788 152.794 34.3642 154.559 34.5008C156.324 34.6374 157.958 33.3204 158.052 31.6546C158.181 29.9914 156.698 28.466 154.965 28.3646C153.266 28.266 151.704 29.5557 151.548 31.1184ZM142.817 25.6201C142.696 27.1854 144.041 28.7002 145.7 28.8614C147.427 29.0279 149.096 27.7136 149.19 26.0478C149.279 24.4472 147.894 22.995 146.199 22.8637C144.503 22.7325 142.941 24.0222 142.819 25.5875L142.817 25.6201ZM151.905 19.7623C153.212 19.9619 154.329 19.0314 154.353 17.8194C154.385 16.5096 153.602 15.8258 152.539 15.6123C151.051 15.4971 150.014 16.3026 149.958 17.4792C149.857 18.7837 150.563 19.56 151.939 19.765L151.905 19.7623ZM169.219 30.8785C170.673 30.991 171.465 30.1994 171.672 28.8704C171.637 27.5227 170.939 26.6485 169.483 26.5686C168.029 26.4561 167.136 27.2071 167.064 28.5794C166.958 29.949 167.763 30.7986 169.219 30.8785ZM166.382 16.2571C166.653 16.3438 167.149 15.7916 167.844 15.3534C167.185 14.8758 166.807 14.3545 166.424 14.3577C166.041 14.3608 165.652 14.8884 165.281 15.1877C165.633 15.5759 165.939 16.1245 166.382 16.2571ZM134.672 19.7408C134.516 21.3034 135.733 22.677 137.394 22.8056C138.986 22.9288 140.36 21.8213 140.511 20.3239C140.667 18.7613 139.45 17.3877 137.789 17.2591C136.197 17.1359 134.823 18.2434 134.672 19.7408ZM160.349 25.3696C161.729 25.5419 162.88 24.6141 162.911 23.3043C162.914 21.9266 162.134 21.2101 160.725 20.9698C159.295 20.9904 158.375 21.6409 158.271 22.9779C158.168 24.315 158.938 25.1619 160.349 25.3696ZM159.921 36.7529C159.827 38.4187 161.276 39.9415 163.011 40.0102C164.779 40.1142 166.346 38.7592 166.438 37.126C166.532 35.4602 165.08 33.97 163.347 33.8687C161.58 33.7647 159.978 35.117 159.921 36.7529ZM134.817 7.97468C135.405 8.02022 136.081 7.38361 137.209 6.74922C136.19 5.98136 135.588 5.21303 135.095 5.27336C134.462 5.35559 133.952 6.10342 133.395 6.55239C133.844 7.04644 134.3 7.90189 134.817 7.97468ZM120.131 11.0372C121.404 11.2341 122.552 10.3388 122.611 9.12958C122.64 7.85241 121.895 7.13859 120.592 6.87375C119.267 6.9024 118.354 7.45503 118.218 8.75677C118.12 10.0286 118.788 10.8349 120.131 11.0372ZM114.454 20.046C116.153 20.1446 117.495 19.0018 117.621 17.3713C117.745 15.7734 116.523 14.465 114.827 14.3338C113.062 14.1972 111.646 15.3998 111.552 17.0656C111.497 18.6689 112.721 19.9447 114.454 20.046ZM111.91 4.79111C112.283 4.9184 113.323 4.08031 113.395 3.59383C113.438 3.03945 112.791 2.39889 112.145 1.2991C111.305 2.25109 110.462 2.80909 110.533 3.24106C110.626 3.83877 111.299 4.57984 111.91 4.79111ZM128.552 16.9379C130.073 17.0884 131.33 16.1359 131.441 14.7011C131.552 13.2662 130.528 12.1043 129.005 11.9865C127.482 11.8686 126.291 12.8591 126.213 14.3292C126.106 15.6989 127.136 16.7955 128.587 16.9406L128.552 16.9379ZM105.175 24.7736C105.034 26.5998 106.537 28.3236 108.507 28.5089C110.512 28.6969 112.369 27.2003 112.481 25.3062C112.59 23.4447 111.013 21.7807 109.072 21.6633C107.099 21.5107 105.351 22.9501 105.173 24.8062L105.175 24.7736ZM127.225 1.25237C126.872 0.864191 126.603 0.285704 126.161 0.15305C125.889 0.0663995 125.361 0.583277 124.669 0.98893C125.291 1.49637 125.666 2.05029 126.049 2.04714C126.43 2.07661 126.819 1.54901 127.222 1.28498L127.225 1.25237ZM119.663 22.483C119.524 24.2766 120.839 25.7235 122.74 25.9034C124.713 26.0561 126.275 24.7663 126.384 22.9049C126.486 21.1412 125.101 19.689 123.195 19.5743C121.292 19.4269 119.764 20.7194 119.663 22.483ZM162.903 164.664C163.013 162.803 161.537 161.18 159.532 160.992C157.49 160.833 155.71 162.238 155.526 164.159C155.377 166.083 156.918 167.777 158.962 167.902C161.004 168.06 162.754 166.588 162.869 164.662L162.903 164.664ZM147.242 52.5682C146.961 54.8429 148.783 56.9522 151.166 57.2023C153.583 57.455 155.769 55.7542 156.015 53.4769C156.226 51.1968 154.403 49.1201 151.98 48.9326C149.626 48.7504 147.517 50.3587 147.242 52.5682ZM149.316 35.6696C147.17 35.5036 145.202 37.09 145.115 39.1172C145.032 41.0792 146.706 42.849 148.785 42.9771C150.864 43.1052 152.761 41.5461 152.877 39.5867C153.029 37.6301 151.392 35.8304 149.281 35.667L149.316 35.6696ZM138.847 47.2272C138.67 49.5099 140.568 51.5268 142.993 51.6817C145.418 51.8366 147.54 50.0652 147.648 47.7771C147.75 45.5543 145.951 43.6107 143.6 43.3959C141.177 43.2084 139.023 44.9444 138.884 47.1973L138.847 47.2272ZM140.476 30.2286C138.399 30.0679 136.656 31.442 136.47 33.396C136.279 35.4152 137.747 37.1363 139.891 37.335C142.037 37.5011 143.814 36.1296 144.008 34.0778C144.164 32.0559 142.659 30.3647 140.476 30.2286ZM157.837 41.1844C155.765 40.9585 153.845 42.3845 153.552 44.363C153.292 46.3768 154.921 48.2744 157.099 48.4758C159.175 48.6365 161.099 47.1779 161.287 45.1913C161.508 43.24 159.909 41.4104 157.837 41.1844ZM164.719 63.8283C164.553 65.9806 166.154 67.7776 168.434 68.0196C170.782 68.267 172.782 66.7159 172.988 64.5011C173.195 62.2862 171.529 60.4186 169.178 60.2038C166.824 60.0217 164.859 61.5754 164.687 63.793L164.719 63.8283ZM174.906 52.7737C172.864 52.6157 171.044 54.0823 170.93 56.009C170.786 57.8678 172.329 59.5291 174.301 59.6818C176.343 59.8398 178.163 58.3732 178.243 56.4438C178.386 54.585 176.841 52.9563 174.871 52.771L174.906 52.7737ZM156.104 58.175C155.868 60.3219 157.658 62.396 160.004 62.6759C162.352 62.9233 164.612 61.1627 164.786 58.9126C164.96 56.6624 163.129 54.6836 160.81 54.5041C158.526 54.3273 156.343 55.9954 156.104 58.175ZM166.461 47.1665C164.385 47.0058 162.644 48.3473 162.424 50.2986C162.198 52.3151 163.664 54.0689 165.807 54.2675C167.951 54.4662 169.763 53.0974 169.922 51.0429C170.078 49.0211 168.607 47.3325 166.427 47.1638L166.461 47.1665ZM92.4889 40.6867C92.2008 43.0593 94.0247 45.136 96.5141 45.3615C98.9714 45.5516 101.08 43.9434 101.294 41.6307C101.508 39.318 99.7855 37.282 97.3307 37.0592C94.8785 36.8038 92.7348 38.4094 92.4889 40.6867ZM100.931 46.3266C100.742 48.7724 102.76 51.0282 105.359 51.1965C107.885 51.3921 110.187 49.5363 110.406 47.1584C110.596 44.7126 108.577 42.4568 105.978 42.2885C103.452 42.0929 101.15 43.9487 100.931 46.3266ZM117.477 26.8739C115.364 26.7431 113.391 28.3947 113.274 30.3541C113.154 32.346 114.889 34.219 117.038 34.3525C119.152 34.4832 121.122 32.8642 121.241 30.8723C121.395 28.8831 119.626 27.0074 117.512 26.8766L117.477 26.8739ZM103.244 29.4794C100.995 29.3053 99.0984 30.8644 98.9318 33.0167C98.7653 35.169 100.402 36.9688 102.686 37.1456C105.039 37.3277 106.973 35.7387 107.073 33.5484C107.202 31.426 105.494 29.6535 103.242 29.512L103.244 29.4794ZM107.07 38.5347C106.896 40.7848 108.791 42.8342 111.182 42.9865C113.607 43.1414 115.729 41.37 115.836 39.0819C115.936 36.8917 114.139 34.9155 111.786 34.7333C109.398 34.5485 107.209 36.2819 107.07 38.5347ZM132.154 24.8277C130.187 24.6098 128.372 26.0112 128.162 27.8321C127.951 29.6529 129.382 31.404 131.345 31.6871C133.31 31.9376 135.154 30.6041 135.437 28.756C135.724 26.8427 134.194 25.0184 132.154 24.8277ZM115.665 43.9896C115.478 46.4028 117.401 48.5527 119.965 48.7183C122.457 48.9112 124.613 47.1425 124.829 44.7973C125.016 42.3841 123.093 40.2341 120.53 40.0685C118.038 39.8756 115.882 41.6443 115.665 43.9896ZM121.911 35.7138C121.67 37.926 123.302 39.791 125.653 40.0057C128.004 40.2205 129.967 38.6993 130.138 36.4818C130.305 34.3295 128.74 32.5025 126.461 32.2605C124.113 32.0131 122.118 33.499 121.877 35.7111L121.911 35.7138ZM24.745 55.8489C26.0382 55.785 26.9911 55.1698 27.0625 53.7975C27.1685 52.4278 26.3613 51.6108 24.9077 51.4983C23.4541 51.3858 22.5949 52.1394 22.4889 53.5091C22.3829 54.8787 23.2298 55.6332 24.745 55.8489ZM186.516 132.636C186.737 130.685 185.303 128.966 183.269 128.711C181.098 128.411 179.217 129.775 178.957 131.789C178.694 133.835 180.16 135.589 182.301 135.82C184.441 136.051 186.288 134.685 186.514 132.669L186.516 132.636ZM178.317 127.015C178.486 124.83 176.625 122.783 174.306 122.604C171.987 122.424 169.838 124.095 169.6 126.275C169.391 128.522 171.282 130.637 173.707 130.792C176.028 130.939 178.147 129.2 178.317 127.015ZM176.678 144.144C178.754 144.305 180.645 142.811 180.866 140.86C181.089 138.876 179.394 136.94 177.245 136.807C175.169 136.646 173.278 138.14 173.057 140.091C172.868 142.078 174.532 143.978 176.678 144.144ZM192.171 124.807C192.423 122.891 190.923 121.134 188.886 120.911C186.916 120.726 185.141 122.065 184.893 123.915C184.64 125.831 186.138 127.62 188.178 127.811C190.148 127.996 191.958 126.66 192.171 124.807ZM197.687 116.507C197.9 114.654 196.558 113.106 194.588 112.921C192.684 112.774 191.13 113.966 190.924 115.721C190.711 117.575 192.054 119.122 194.024 119.308C195.927 119.455 197.482 118.263 197.687 116.507ZM172.545 135.459C172.82 133.249 171.17 131.186 168.831 130.808C166.424 130.425 164.142 132.02 163.792 134.289C163.442 136.559 165.155 138.725 167.567 139.043C169.98 139.361 172.23 137.731 172.51 135.456L172.545 135.459ZM156.292 155.164C158.611 155.343 160.73 153.605 160.899 151.42C161.068 149.235 159.242 147.191 156.926 146.979C154.644 146.769 152.458 148.47 152.22 150.649C151.979 152.862 153.902 155.012 156.292 155.164ZM166.804 143.052C166.907 140.829 165.107 138.885 162.756 138.671C160.334 138.483 158.183 140.187 158.003 142.502C157.827 144.785 159.725 146.802 162.15 146.956C164.575 147.111 166.697 145.34 166.804 143.052ZM182.379 74.9713C182.27 76.8327 183.781 78.4587 185.753 78.6114C187.795 78.7695 189.58 77.3001 189.695 75.3734C189.804 73.5119 188.293 71.8859 186.323 71.7006C184.281 71.5426 182.462 73.0093 182.382 74.9386L182.379 74.9713ZM173.661 69.31C173.472 71.2965 175.17 73.1995 177.279 73.3955C179.387 73.5915 181.39 72.0078 181.579 70.0212C181.767 68.0346 180.069 66.1317 177.961 65.9357C175.852 65.7397 173.849 67.3234 173.661 69.31ZM183.681 58.6034C181.778 58.4561 180.223 59.648 180.015 61.4363C179.836 63.2924 181.214 64.8424 183.189 64.9625C185.092 65.1098 186.617 63.85 186.759 62.0238C186.898 60.2302 185.585 58.7508 183.684 58.5708L183.681 58.6034ZM192.212 64.447C190.452 64.2452 188.939 65.3419 188.778 66.9698C188.62 68.565 189.733 69.9306 191.424 70.1271C193.181 70.3615 194.696 69.2321 194.857 67.6043C195.015 66.009 193.902 64.6435 192.212 64.447ZM195.098 77.9896C193.367 77.8556 191.704 79.1047 191.541 80.7652C191.414 82.3957 192.754 83.9757 194.519 84.1123C196.25 84.2463 197.913 82.9972 198.042 81.334C198.168 79.7035 196.828 78.1235 195.066 77.9543L195.098 77.9896ZM205.903 86.8305C206.014 85.3956 205.025 84.2365 203.504 84.086C201.984 83.9355 200.729 84.8554 200.583 86.2876C200.398 87.7823 201.486 89.0147 203.044 89.1353C204.567 89.2531 205.755 88.2953 205.901 86.8631L205.903 86.8305ZM197.648 91.3749C195.88 91.2709 194.281 92.5906 194.187 94.2564C194.058 95.9196 195.507 97.4424 197.275 97.5464C199.042 97.6504 200.642 96.3307 200.736 94.6649C200.865 93.0017 199.416 91.4789 197.648 91.3749ZM203.154 108.401C203.243 106.8 202.022 105.492 200.326 105.361C198.561 105.224 197.112 106.391 197.053 108.06C196.964 109.66 198.186 110.969 199.882 111.1C201.647 111.237 203.095 110.069 203.189 108.404L203.154 108.401ZM45.4221 40.1605C43.6941 39.994 42.137 41.2185 42.0108 42.849C41.8846 44.4795 43.2001 45.9264 44.9306 46.0603C46.6611 46.1943 48.1886 44.9018 48.2431 43.2986C48.3296 41.7306 47.0783 40.3543 45.4195 40.1931L45.4221 40.1605ZM45.2535 135.908C45.4421 133.921 43.7787 132.021 41.6354 131.822C39.5267 131.626 37.5265 133.177 37.3355 135.197C37.1469 137.183 38.8103 139.083 40.9536 139.282C43.0623 139.478 45.0624 137.927 45.2535 135.908ZM44.011 152.412C46.053 152.57 47.87 151.136 47.9843 149.209C48.1282 147.35 46.6202 145.691 44.6499 145.506C42.6079 145.348 40.7909 146.782 40.6766 148.709C40.5328 150.568 42.0408 152.226 44.011 152.412ZM35.028 146.566C37.0253 146.852 38.6862 145.635 38.8647 143.779C39.0381 141.988 37.7969 140.481 35.8984 140.269C33.9999 140.056 32.3786 141.21 32.136 142.996C31.8933 144.781 33.1295 146.353 34.9909 146.596L35.028 146.566ZM94.4784 23.9785C92.4711 23.8231 90.7975 25.2027 90.6165 27.0914C90.4651 29.048 91.936 30.7366 94.0126 30.8973C96.0892 31.058 97.8345 29.6512 97.9859 27.6946C98.1373 25.7379 96.5947 24.0767 94.5156 23.9486L94.4784 23.9785ZM23.8882 127.201C25.6533 127.338 27.2897 125.988 27.3492 124.32C27.4382 122.719 26.0906 121.237 24.3973 121.073C22.6347 120.904 20.9687 122.185 20.84 123.849C20.7113 125.512 22.123 127.064 23.8535 127.198L23.8882 127.201ZM52.317 158.008C54.4577 158.239 56.3043 156.873 56.4954 154.854C56.7211 152.838 55.2181 151.114 53.0749 150.915C50.929 150.749 49.1517 152.12 48.9927 154.175C48.8412 156.132 50.2801 157.785 52.3516 158.011L52.317 158.008ZM32.5269 133.447C34.5663 133.637 36.4205 132.173 36.5348 130.247C36.6786 128.388 35.1014 126.724 33.1286 126.571C31.1559 126.419 29.4081 127.858 29.2296 129.714C29.0857 131.573 30.5912 133.264 32.5269 133.447ZM33.5574 116.533C33.7088 114.576 32.2354 112.92 30.1588 112.76C28.0822 112.599 26.3394 113.973 26.188 115.93C26.0366 117.886 27.51 119.542 29.5866 119.703C31.6632 119.864 33.4059 118.49 33.5574 116.533ZM71.6899 152.421C71.8666 150.139 69.9685 148.122 67.5086 147.964C65.1526 147.815 63.0706 149.523 62.899 151.741C62.7223 154.024 64.5487 156.068 66.9714 156.255C69.3941 156.443 71.5478 154.707 71.6899 152.421ZM62.8522 146.948C63.0213 144.763 61.1949 142.719 58.8786 142.507C56.5597 142.327 54.411 143.998 54.1727 146.178C53.9369 148.324 55.7261 150.399 58.0374 150.676C60.3833 150.956 62.6434 149.195 62.8176 146.945L62.8522 146.948ZM88.8631 163.56C89.0322 161.375 87.2059 159.331 84.8895 159.118C82.504 158.901 80.2759 160.697 80.1364 162.95C80.0019 165.137 81.8654 167.151 84.1843 167.331C86.5031 167.51 88.6569 165.774 88.826 163.589L88.8631 163.56ZM80.0972 158.059C80.3084 155.778 78.4846 153.702 76.0619 153.514C73.7084 153.332 71.5994 154.94 71.3239 157.15C71.0434 159.425 72.8301 161.531 75.2478 161.784C77.6654 162.037 79.8513 160.336 80.0625 158.056L80.0972 158.059ZM78.404 174.987C80.5844 175.155 82.3297 173.749 82.4887 171.694C82.6452 169.672 81.1026 168.011 78.9196 167.875C76.7738 167.709 75.0555 169.216 74.9337 171.241C74.8515 173.203 76.3299 174.793 78.4065 174.954L78.404 174.987ZM61.322 164.02C63.4036 164.115 65.2654 162.553 65.3822 160.594C65.499 158.635 63.8626 156.835 61.7489 156.704C59.6723 156.543 57.7785 158.07 57.5924 160.024C57.436 162.046 59.1365 163.916 61.2874 164.017L61.322 164.02ZM21.202 113.772C22.9671 113.909 24.601 112.592 24.7298 110.929C24.8534 109.331 23.5058 107.849 21.815 107.652C20.0895 107.453 18.389 108.732 18.2256 110.393C18.0623 112.053 19.4369 113.636 21.202 113.772ZM69.5638 169.546C71.707 169.744 73.6751 168.158 73.797 166.133C73.9138 164.174 72.2775 162.374 70.1637 162.243C68.0871 162.083 66.1933 163.609 66.0073 165.563C65.8558 167.52 67.4551 169.35 69.5291 169.543L69.5638 169.546ZM54.2246 141.458C54.4309 139.243 52.7649 137.375 50.414 137.16C48.1297 136.983 46.2063 138.442 45.9359 140.586C45.6926 142.831 47.2868 144.726 49.6352 144.973C51.9836 145.221 53.9838 143.67 54.1875 141.487L54.2246 141.458ZM50.1563 48.2691C49.9973 50.3236 51.4682 52.0121 53.6512 52.1483C55.7623 52.3117 57.4705 50.9348 57.6566 48.9808C57.8156 46.9264 56.3447 45.2378 54.1617 45.1017C52.0505 44.9383 50.3424 46.3152 50.1563 48.2691ZM63.9909 45.8624C63.7847 48.0773 65.416 49.9423 67.7695 50.1244C70.1229 50.3065 72.0514 48.7827 72.2255 46.5326C72.3972 44.315 70.7287 42.48 68.3381 42.3278C66.0538 42.151 64.1946 43.6802 63.9934 45.8298L63.9909 45.8624ZM59.9521 37.3156C57.9793 37.1629 56.1994 38.567 56.0556 40.4258C55.9117 42.2846 57.3826 43.9731 59.3503 44.191C61.3898 44.3817 63.2439 42.9177 63.3582 40.991C63.5021 39.1322 61.9248 37.4682 59.9521 37.3156ZM15.4124 121.099C16.9327 121.25 18.1531 120.327 18.2987 118.895C18.4444 117.463 17.4548 116.304 15.9345 116.153C14.4142 116.003 13.1938 116.925 13.0481 118.357C12.9025 119.79 13.8921 120.949 15.4124 121.099ZM58.0149 53.7982C57.8458 55.9831 59.6721 58.0272 62.0231 58.242C64.3419 58.4215 66.4932 56.718 66.6623 54.5331C66.8314 52.3482 65.005 50.3041 62.6515 50.122C60.3327 49.9425 58.1814 51.6459 58.0123 53.8308L58.0149 53.7982ZM84.4177 35.2068C84.1768 37.4189 85.8056 39.3165 88.1245 39.496C90.4087 39.6728 92.3 38.1789 92.5333 36.0645C92.7345 33.9149 91.1699 32.0879 88.8907 31.8459C86.6115 31.6039 84.6535 33.0598 84.4202 35.1742L84.4177 35.2068ZM80.0623 26.701C78.1292 26.4858 76.2826 27.852 76.0349 29.7027C75.7847 31.5861 77.3493 33.4131 79.3567 33.5685C81.3295 33.7211 83.1094 32.317 83.2853 30.4935C83.4638 28.6374 81.9954 26.9163 80.0277 26.6983L80.0623 26.701ZM78.3252 43.2976C78.1882 45.5178 80.0196 47.4967 82.373 47.6788C84.7957 47.8663 86.952 46.0977 87.0941 43.8122C87.2311 41.592 85.3997 39.6132 83.0462 39.431C80.6235 39.2435 78.4672 41.0122 78.3252 43.2976ZM69.9601 37.5653C69.7023 39.5465 71.3607 41.5119 73.5015 41.7432C75.6076 41.9719 77.6449 40.3908 77.8335 38.4043C78.0221 36.4177 76.3265 34.4821 74.2153 34.3187C72.1734 34.1607 70.2128 35.6493 69.9576 37.5979L69.9601 37.5653ZM21.8506 72.5527C20.1548 72.4215 18.7412 73.5915 18.6521 75.1921C18.6052 76.6975 19.827 78.0059 21.4562 78.0992C23.0854 78.1925 24.4272 77.0497 24.5433 75.5496C24.662 74.0169 23.4402 72.7086 21.8481 72.5853L21.8506 72.5527ZM16.1753 81.1023C14.6575 80.9192 13.4025 81.8391 13.2222 83.2686C13.042 84.6981 14.0637 85.8926 15.5865 86.0104C17.1093 86.1283 18.3297 85.2058 18.4407 83.7709C18.5467 82.4012 17.5892 81.2774 16.1753 81.1023ZM24.6011 67.1558C24.4774 68.7537 25.7879 70.2658 27.4812 70.4297C29.1771 70.5609 30.7688 69.3391 30.8925 67.7411C31.0162 66.1432 29.7057 64.6312 28.0123 64.4673C26.3165 64.336 24.7248 65.5579 24.5665 67.1531L24.6011 67.1558ZM86.8289 180.396C88.8709 180.554 90.6879 179.12 90.8022 177.193C90.9461 175.334 89.4035 173.673 87.4307 173.52C85.3887 173.362 83.5717 174.796 83.4574 176.723C83.3135 178.582 84.8562 180.243 86.8289 180.396ZM43.9128 56.5123C43.7588 58.5015 45.3285 60.2633 47.4026 60.4566C49.5805 60.658 51.4743 59.1315 51.5987 57.0743C51.7526 55.0851 50.1112 53.3505 47.9975 53.2198C45.8863 53.0564 44.0642 54.5556 43.8782 56.5096L43.9128 56.5123ZM36.0863 51.0184C35.923 52.6789 37.3322 54.2642 39.0627 54.3982C40.8278 54.5348 42.4617 53.2178 42.5904 51.5546C42.7141 49.9567 41.3665 48.4746 39.6757 48.2781C37.9502 48.0789 36.2496 49.358 36.0863 51.0184ZM30.3129 59.0355C30.2584 60.6388 31.606 62.1209 33.3019 62.2522C35.067 62.3888 36.6984 61.1044 36.8271 59.4413C36.9558 57.7781 35.5094 56.2227 33.7764 56.1214C32.0113 55.9848 30.407 57.3697 30.3154 59.0029L30.3129 59.0355Z" fill="black"/>
</svg>
