<svg width="95%" height="100%" preserveAspectRatio="none" viewBox="0 0 439 203" fill="none" xmlns="http://www.w3.org/2000/svg">
<path d="M303.962 197.833L306.376 197.786C311.769 197.682 317.358 197.624 323.068 197.569C328.988 197.509 335.037 197.452 341.116 197.335C362.341 196.925 386.599 195.798 405.619 190.537C431.773 183.305 436.752 165.593 438.166 150.966C439.712 135.029 437.819 118.587 435.989 102.684C435.462 98.1334 434.942 93.5921 434.497 89.0812C434.036 84.4017 433.867 79.5291 433.694 74.3687C433.127 57.9608 432.486 39.361 421.214 25.2984C408.374 9.26462 382.041 1.04043 342.942 0.849414C329.98 0.784392 316.014 0.903232 300.255 1.20751C282.453 1.55123 264.321 2.09783 246.785 2.62377C231.638 3.08073 215.982 3.54752 200.62 3.88982C192.362 4.06755 184.087 4.23646 175.812 4.40537C137.013 5.19106 96.8979 6.00216 57.7769 8.38431C33.2677 9.872 10.8072 12.4443 5.29227 27.361C-1.24659 45.0622 -0.124294 64.1646 0.9558 82.6372C1.23545 87.4391 1.51361 92.2044 1.65935 96.8947C1.85538 103.384 1.71651 110.178 1.57647 116.747C1.2023 134.247 0.82021 152.336 6.49145 168.902C12.3557 186.03 30.4109 196.292 60.1687 199.405C91.8984 202.727 124.714 202.6 149.757 202.117C162.82 201.865 176.054 201.449 188.852 201.051C198.406 200.753 207.904 200.455 217.307 200.223L217.34 200.223C274.358 199.122 273.116 198.571 303.962 197.833Z" fill="black"/>
</svg>
