<svg width="100%" height="100%" viewBox="0 0 307 271" preserveAspectRatio="none" fill="none" xmlns="http://www.w3.org/2000/svg">
<mask id="path-1-outside-1_1_714" maskUnits="userSpaceOnUse" x="0.00012207" y="-0.000106812" width="307" height="271" fill="black">
<rect fill="white" x="0.00012207" y="-0.000106812" width="307" height="271"/>
<path fill-rule="evenodd" clip-rule="evenodd" d="M210.734 233.475H209.082C201.409 233.536 193.34 233.794 185.128 234.057C174.407 234.399 163.443 234.75 152.795 234.68C151.275 235.738 149.408 236.954 147.329 238.307C137.75 244.542 123.674 253.703 118.456 263.933C113.007 274.619 115.026 250.285 116.706 234.889C112.32 234.955 107.914 235 103.537 235C86.4014 235 63.9632 234.408 42.3647 229.818C22.1084 225.516 10.0552 213.137 6.53094 193.022C3.12268 173.569 3.89605 152.473 4.6473 132.065C4.92902 124.405 5.21625 116.482 5.26596 108.907C5.29894 103.459 5.2444 97.9222 5.18944 92.3426L5.18861 92.2576L5.18815 92.2116C4.97285 70.6506 4.75024 48.3567 9.71825 27.8676C13.9109 10.5892 29.3392 8.09424 46.1375 6.91072C72.9298 5.01429 100.356 4.97024 126.885 4.92762L126.947 4.92752L126.947 4.92752C132.609 4.91686 138.271 4.90619 143.922 4.88487C154.434 4.83156 165.151 4.63963 175.519 4.44771L176.027 4.43847C187.872 4.22272 200.106 3.99989 212.115 3.99989C222.898 3.99989 232.449 4.17582 241.309 4.54367C268.034 5.64723 285.804 15.8351 294.129 34.8301C301.436 51.4884 301.349 73.1997 301.271 92.3533V92.3588C301.244 98.3831 301.222 104.071 301.404 109.541C301.581 114.814 301.807 120.124 302.039 125.444L302.04 125.457C302.84 144.048 303.668 163.268 302.161 181.821C300.78 198.854 296.874 219.406 278.789 227.254C265.636 232.963 249.02 233.731 234.498 233.731C230.56 233.731 226.642 233.669 222.801 233.608L222.152 233.598C218.247 233.534 214.424 233.475 210.734 233.475Z"/>
</mask>
<path fill-rule="evenodd" clip-rule="evenodd" d="M210.734 233.475H209.082C201.409 233.536 193.34 233.794 185.128 234.057C174.407 234.399 163.443 234.75 152.795 234.68C151.275 235.738 149.408 236.954 147.329 238.307C137.75 244.542 123.674 253.703 118.456 263.933C113.007 274.619 115.026 250.285 116.706 234.889C112.32 234.955 107.914 235 103.537 235C86.4014 235 63.9632 234.408 42.3647 229.818C22.1084 225.516 10.0552 213.137 6.53094 193.022C3.12268 173.569 3.89605 152.473 4.6473 132.065C4.92902 124.405 5.21625 116.482 5.26596 108.907C5.29894 103.459 5.2444 97.9222 5.18944 92.3426L5.18861 92.2576L5.18815 92.2116C4.97285 70.6506 4.75024 48.3567 9.71825 27.8676C13.9109 10.5892 29.3392 8.09424 46.1375 6.91072C72.9298 5.01429 100.356 4.97024 126.885 4.92762L126.947 4.92752L126.947 4.92752C132.609 4.91686 138.271 4.90619 143.922 4.88487C154.434 4.83156 165.151 4.63963 175.519 4.44771L176.027 4.43847C187.872 4.22272 200.106 3.99989 212.115 3.99989C222.898 3.99989 232.449 4.17582 241.309 4.54367C268.034 5.64723 285.804 15.8351 294.129 34.8301C301.436 51.4884 301.349 73.1997 301.271 92.3533V92.3588C301.244 98.3831 301.222 104.071 301.404 109.541C301.581 114.814 301.807 120.124 302.039 125.444L302.04 125.457C302.84 144.048 303.668 163.268 302.161 181.821C300.78 198.854 296.874 219.406 278.789 227.254C265.636 232.963 249.02 233.731 234.498 233.731C230.56 233.731 226.642 233.669 222.801 233.608L222.152 233.598C218.247 233.534 214.424 233.475 210.734 233.475Z" fill="white"/>
<path d="M209.082 233.475V229.662C209.072 229.662 209.062 229.662 209.052 229.662L209.082 233.475ZM185.128 234.057L185.249 237.868L185.128 234.057ZM152.795 234.68L152.82 230.867C152.032 230.862 151.261 231.101 150.614 231.551L152.795 234.68ZM147.329 238.307L145.249 235.111L145.249 235.111L147.329 238.307ZM118.456 263.933L115.06 262.201L118.456 263.933ZM116.706 234.889L120.497 235.302C120.615 234.216 120.262 233.13 119.526 232.322C118.79 231.513 117.742 231.06 116.649 231.076L116.706 234.889ZM42.3647 229.818L43.1573 226.088L43.1568 226.088L42.3647 229.818ZM6.53094 193.022L2.77514 193.68L2.77515 193.68L6.53094 193.022ZM4.6473 132.065L8.45772 132.206L8.45773 132.206L4.6473 132.065ZM5.26596 108.907L9.07889 108.932L9.0789 108.93L5.26596 108.907ZM5.18944 92.3426L1.37662 92.3801V92.3802L5.18944 92.3426ZM5.18861 92.2576L9.00142 92.22L9.00142 92.2195L5.18861 92.2576ZM5.18815 92.2116L1.37533 92.2496V92.2496L5.18815 92.2116ZM9.71825 27.8676L6.01277 26.9684L6.01262 26.9691L9.71825 27.8676ZM46.1375 6.91072L46.4055 10.7143L46.4067 10.7142L46.1375 6.91072ZM126.885 4.92762L126.879 1.11462L126.885 4.92762ZM126.947 4.92752L126.942 1.11452L126.941 1.11452L126.947 4.92752ZM126.947 4.92752L126.952 8.74052L126.954 8.74051L126.947 4.92752ZM143.922 4.88487L143.937 8.69785L143.941 8.69782L143.922 4.88487ZM175.519 4.44771L175.45 0.63534L175.448 0.635361L175.519 4.44771ZM176.027 4.43847L176.096 8.25084H176.096L176.027 4.43847ZM241.309 4.54367L241.151 8.35339L241.152 8.35343L241.309 4.54367ZM294.129 34.8301L290.636 36.3606L290.637 36.3618L294.129 34.8301ZM301.271 92.3533L297.458 92.3379C297.458 92.343 297.458 92.3481 297.458 92.3533H301.271ZM301.271 92.3588L305.084 92.3763C305.084 92.3705 305.084 92.3647 305.084 92.3588H301.271ZM301.404 109.541L297.593 109.668L297.593 109.669L301.404 109.541ZM302.039 125.444L305.849 125.287L305.848 125.278L302.039 125.444ZM302.04 125.457L298.23 125.614L298.23 125.622L302.04 125.457ZM302.161 181.821L298.36 181.513L298.36 181.513L302.161 181.821ZM278.789 227.254L277.271 223.756L277.27 223.756L278.789 227.254ZM222.801 233.608L222.74 237.421H222.74L222.801 233.608ZM222.152 233.598L222.09 237.41L222.092 237.41L222.152 233.598ZM209.082 237.288H210.734V229.662H209.082V237.288ZM185.249 237.868C193.471 237.605 201.493 237.348 209.113 237.288L209.052 229.662C201.324 229.723 193.208 229.983 185.006 230.246L185.249 237.868ZM152.769 238.493C163.504 238.564 174.543 238.21 185.249 237.868L185.006 230.246C174.272 230.589 163.382 230.937 152.82 230.867L152.769 238.493ZM150.614 231.551C149.156 232.568 147.345 233.747 145.249 235.111L149.409 241.503C151.471 240.16 153.395 238.909 154.975 237.808L150.614 231.551ZM145.249 235.111C140.482 238.214 134.403 242.166 128.857 246.659C123.365 251.107 118.037 256.362 115.06 262.201L121.853 265.666C124.093 261.274 128.412 256.833 133.657 252.585C138.848 248.38 144.597 244.635 149.409 241.503L145.249 235.111ZM115.06 262.201C114.768 262.774 114.546 263.137 114.399 263.347C114.222 263.599 114.261 263.473 114.547 263.271C114.862 263.049 115.889 262.477 117.251 262.897C118.457 263.269 118.937 264.134 119.002 264.255C119.121 264.475 118.975 264.271 118.859 263.117C118.759 262.13 118.712 260.815 118.721 259.211C118.753 252.76 119.656 243.008 120.497 235.302L112.916 234.475C112.076 242.166 111.129 252.279 111.095 259.173C111.086 260.905 111.134 262.518 111.271 263.881C111.391 265.076 111.623 266.642 112.293 267.881C112.634 268.512 113.432 269.7 115.004 270.184C116.731 270.717 118.17 270.048 118.948 269.499C119.697 268.97 120.25 268.285 120.642 267.727C121.062 267.128 121.464 266.429 121.853 265.666L115.06 262.201ZM103.537 238.813C107.939 238.813 112.366 238.768 116.764 238.701L116.649 231.076C112.274 231.142 107.889 231.187 103.537 231.187V238.813ZM41.572 233.548C63.5795 238.225 86.3489 238.813 103.537 238.813V231.187C86.454 231.187 64.3469 230.592 43.1573 226.088L41.572 233.548ZM2.77515 193.68C4.64445 204.349 8.82751 213.218 15.4416 220.01C22.0525 226.799 30.8579 231.272 41.5725 233.548L43.1568 226.088C33.6152 224.062 26.2658 220.194 20.905 214.689C15.5474 209.188 11.9417 201.81 10.2867 192.364L2.77515 193.68ZM0.836879 131.925C0.0887604 152.248 -0.715043 173.759 2.77514 193.68L10.2867 192.364C6.96039 173.378 7.70333 152.699 8.45772 132.206L0.836879 131.925ZM1.45304 108.882C1.40377 116.39 1.11893 124.255 0.836874 131.925L8.45773 132.206C8.73912 124.554 9.02873 116.574 9.07889 108.932L1.45304 108.882ZM1.37662 92.3802C1.43164 97.9653 1.48579 103.472 1.45303 108.884L9.0789 108.93C9.11209 103.447 9.05717 97.8792 9.00226 92.3051L1.37662 92.3802ZM1.37579 92.2951L1.37662 92.3801L9.00226 92.3051L9.00142 92.22L1.37579 92.2951ZM1.37533 92.2496L1.37579 92.2956L9.00142 92.2195L9.00096 92.1735L1.37533 92.2496ZM6.01262 26.9691C0.912754 48.002 1.16102 70.7872 1.37533 92.2496L9.00096 92.1735C8.78468 70.514 8.58773 48.7114 13.4239 28.7661L6.01262 26.9691ZM45.8695 3.10714C37.4958 3.69711 28.8039 4.63422 21.6293 7.87945C14.1649 11.2558 8.40762 17.0991 6.01277 26.9684L13.4237 28.7667C15.2215 21.3578 19.2748 17.3143 24.7722 14.8277C30.5595 12.21 37.981 11.3078 46.4055 10.7143L45.8695 3.10714ZM126.879 1.11462C100.373 1.1572 72.8142 1.19993 45.8683 3.10723L46.4067 10.7142C73.0454 8.82865 100.339 8.78327 126.891 8.74062L126.879 1.11462ZM126.941 1.11452L126.879 1.11462L126.891 8.74062L126.953 8.74052L126.941 1.11452ZM126.942 1.11452L126.942 1.11452L126.952 8.74052H126.952L126.942 1.11452ZM143.908 1.07189C138.261 1.0932 132.603 1.10386 126.94 1.11452L126.954 8.74051C132.616 8.72985 138.281 8.71919 143.937 8.69784L143.908 1.07189ZM175.448 0.635361C165.078 0.827323 154.386 1.01875 143.903 1.07191L143.941 8.69782C154.483 8.64436 165.223 8.45194 175.59 8.26006L175.448 0.635361ZM175.957 0.626094L175.45 0.63534L175.588 8.26008L176.096 8.25084L175.957 0.626094ZM212.115 0.18689C200.066 0.18689 187.797 0.410456 175.957 0.626094L176.096 8.25084C187.948 8.03498 200.147 7.8129 212.115 7.8129V0.18689ZM241.467 0.733951C232.544 0.363478 222.939 0.18689 212.115 0.18689V7.8129C222.857 7.8129 232.354 7.98816 241.151 8.35339L241.467 0.733951ZM297.621 33.2996C288.534 12.5647 269.145 1.87686 241.466 0.733916L241.152 8.35343C266.922 9.41759 283.074 19.1056 290.636 36.3606L297.621 33.2996ZM305.084 92.3687C305.161 73.448 305.317 50.8438 297.621 33.2984L290.637 36.3618C297.555 52.133 297.537 72.9514 297.458 92.3379L305.084 92.3687ZM305.084 92.3588V92.3533H297.458V92.3588H305.084ZM305.215 109.414C305.035 104.029 305.057 98.4131 305.084 92.3763L297.458 92.3414C297.431 98.3531 297.408 104.114 297.593 109.668L305.215 109.414ZM305.848 125.278C305.616 119.958 305.391 114.665 305.215 109.413L297.593 109.669C297.77 114.963 297.998 120.29 298.23 125.61L305.848 125.278ZM305.849 125.301L305.849 125.287L298.229 125.601L298.23 125.614L305.849 125.301ZM305.961 182.13C307.491 163.3 306.648 143.841 305.849 125.293L298.23 125.622C299.033 144.256 299.845 163.236 298.36 181.513L305.961 182.13ZM280.307 230.752C290.493 226.331 296.586 218.333 300.263 209.439C303.905 200.628 305.262 190.75 305.961 182.13L298.36 181.513C297.678 189.926 296.392 198.84 293.215 206.525C290.073 214.127 285.17 220.328 277.271 223.756L280.307 230.752ZM234.498 237.544C249.002 237.544 266.35 236.81 280.307 230.751L277.27 223.756C264.923 229.116 249.039 229.918 234.498 229.918V237.544ZM222.74 237.421C226.577 237.481 230.525 237.544 234.498 237.544V229.918C230.595 229.918 226.708 229.856 222.861 229.796L222.74 237.421ZM222.092 237.41L222.74 237.421L222.861 229.796L222.212 229.785L222.092 237.41ZM210.734 237.288C214.389 237.288 218.182 237.346 222.09 237.41L222.214 229.785C218.311 229.721 214.459 229.662 210.734 229.662V237.288Z" fill="black" mask="url(#path-1-outside-1_1_714)"/>
</svg>
