<svg width="100%" height="100%" viewBox="0 0 463 157" preserveAspectRatio="none" fill="none" xmlns="http://www.w3.org/2000/svg">
<mask id="path-1-outside-1_1_223" maskUnits="userSpaceOnUse" x="0.210754" y="-0.0226135" width="463" height="157" fill="black">
<rect fill="white" x="0.210754" y="-0.0226135" width="463" height="157"/>
<path fill-rule="evenodd" clip-rule="evenodd" d="M326.735 149.679H324.407C313.59 149.717 302.216 149.878 290.639 150.043C274.687 150.27 258.351 150.502 242.561 150.423C242.047 150.28 241.447 150.203 240.832 150.203H240.801C231.831 150.239 222.771 150.321 213.656 150.404L213.345 150.407L212.426 150.415C200.362 150.523 187.912 150.634 175.626 150.634C151.471 150.634 119.841 150.263 89.3951 147.389C87.0763 147.17 84.8338 146.918 82.6677 146.632C67.6142 147.124 53.317 144.021 48.9214 137.549C48.2709 136.584 47.6245 135.628 46.9822 134.679C43.1306 131.707 40.4261 128.26 38.8824 124.346C38.4723 123.307 38.1052 122.259 37.7773 121.206C26.4776 104.831 16.3481 90.7966 6.52066 77.882C6.29112 77.5724 6.18837 77.2078 6.21482 76.777C6.24565 76.2418 6.49996 75.7922 6.82731 75.6766L6.82139 75.6478L7.24542 75.6728L36.1985 86.5202C36.208 86.4049 36.2176 86.2896 36.2271 86.1743C36.6243 81.3769 37.0292 76.4159 37.0993 71.672C37.1458 68.2604 37.0689 64.7926 36.9914 61.2983L36.9902 61.2459L36.9896 61.2169C36.6861 47.7151 36.3723 33.7544 43.3754 20.9238C49.2855 10.1037 71.0339 8.54134 94.7134 7.8002C132.481 6.61262 171.142 6.58503 208.538 6.55834L208.626 6.55828C216.607 6.5516 224.589 6.54493 232.555 6.53157C247.373 6.49819 262.479 6.378 277.095 6.25782L277.811 6.25203C294.509 6.11692 311.754 5.97739 328.682 5.97739C343.882 5.97739 357.345 6.08756 369.835 6.31791C407.507 7.00898 432.557 13.3888 444.292 25.2838C454.593 35.7155 454.469 49.3115 454.36 61.3057V61.3093C454.321 65.0818 454.29 68.644 454.547 72.0692C454.796 75.371 455.116 78.6961 455.443 82.0279L455.443 82.0362C456.572 93.6782 457.739 105.714 455.614 117.332C453.667 127.999 448.162 140.869 422.668 145.783C404.128 149.358 380.705 149.839 360.234 149.839C354.686 149.839 349.166 149.8 343.753 149.762L342.831 149.756C337.325 149.716 331.937 149.679 326.735 149.679Z"/>
</mask>
<path fill-rule="evenodd" clip-rule="evenodd" d="M326.735 149.679H324.407C313.59 149.717 302.216 149.878 290.639 150.043C274.687 150.27 258.351 150.502 242.561 150.423C242.047 150.28 241.447 150.203 240.832 150.203H240.801C231.831 150.239 222.771 150.321 213.656 150.404L213.345 150.407L212.426 150.415C200.362 150.523 187.912 150.634 175.626 150.634C151.471 150.634 119.841 150.263 89.3951 147.389C87.0763 147.17 84.8338 146.918 82.6677 146.632C67.6142 147.124 53.317 144.021 48.9214 137.549C48.2709 136.584 47.6245 135.628 46.9822 134.679C43.1306 131.707 40.4261 128.26 38.8824 124.346C38.4723 123.307 38.1052 122.259 37.7773 121.206C26.4776 104.831 16.3481 90.7966 6.52066 77.882C6.29112 77.5724 6.18837 77.2078 6.21482 76.777C6.24565 76.2418 6.49996 75.7922 6.82731 75.6766L6.82139 75.6478L7.24542 75.6728L36.1985 86.5202C36.208 86.4049 36.2176 86.2896 36.2271 86.1743C36.6243 81.3769 37.0292 76.4159 37.0993 71.672C37.1458 68.2604 37.0689 64.7926 36.9914 61.2983L36.9902 61.2459L36.9896 61.2169C36.6861 47.7151 36.3723 33.7544 43.3754 20.9238C49.2855 10.1037 71.0339 8.54134 94.7134 7.8002C132.481 6.61262 171.142 6.58503 208.538 6.55834L208.626 6.55828C216.607 6.5516 224.589 6.54493 232.555 6.53157C247.373 6.49819 262.479 6.378 277.095 6.25782L277.811 6.25203C294.509 6.11692 311.754 5.97739 328.682 5.97739C343.882 5.97739 357.345 6.08756 369.835 6.31791C407.507 7.00898 432.557 13.3888 444.292 25.2838C454.593 35.7155 454.469 49.3115 454.36 61.3057V61.3093C454.321 65.0818 454.29 68.644 454.547 72.0692C454.796 75.371 455.116 78.6961 455.443 82.0279L455.443 82.0362C456.572 93.6782 457.739 105.714 455.614 117.332C453.667 127.999 448.162 140.869 422.668 145.783C404.128 149.358 380.705 149.839 360.234 149.839C354.686 149.839 349.166 149.8 343.753 149.762L342.831 149.756C337.325 149.716 331.937 149.679 326.735 149.679Z" fill="white"/>
<path d="M324.407 149.679V144.183C324.401 144.183 324.394 144.183 324.388 144.183L324.407 149.679ZM290.639 150.043L290.561 144.547L290.561 144.547L290.639 150.043ZM242.561 150.423L241.082 155.717C241.554 155.849 242.043 155.917 242.533 155.92L242.561 150.423ZM240.801 150.203V144.707C240.793 144.707 240.786 144.707 240.779 144.707L240.801 150.203ZM213.656 150.404L213.607 144.908L213.606 144.908L213.656 150.404ZM213.345 150.407L213.394 155.903L213.395 155.903L213.345 150.407ZM212.426 150.415L212.377 144.919L212.377 144.919L212.426 150.415ZM89.3951 147.389L89.9117 141.917L89.9114 141.917L89.3951 147.389ZM82.6677 146.632L83.3857 141.183C83.0883 141.144 82.7882 141.129 82.4884 141.139L82.6677 146.632ZM48.9214 137.549L44.3647 140.622C44.368 140.627 44.3712 140.632 44.3745 140.637L48.9214 137.549ZM46.9822 134.679L51.5338 131.598C51.206 131.114 50.803 130.685 50.34 130.327L46.9822 134.679ZM38.8824 124.346L33.7694 126.363L33.7694 126.363L38.8824 124.346ZM37.7773 121.206L43.0255 119.573C42.8606 119.043 42.6164 118.541 42.3011 118.084L37.7773 121.206ZM6.52066 77.882L2.10563 81.1556C2.11921 81.174 2.13292 81.1922 2.14673 81.2104L6.52066 77.882ZM6.21482 76.777L11.7008 77.1138C11.7012 77.1069 11.7016 77.1 11.702 77.093L6.21482 76.777ZM6.82731 75.6766L8.65782 80.8591C11.2465 79.9447 12.7635 77.2604 12.2113 74.5711L6.82731 75.6766ZM6.82139 75.6478L7.1455 70.1611C5.44 70.0603 3.78463 70.7584 2.66628 72.05C1.54793 73.3415 1.09379 75.0797 1.43742 76.7533L6.82139 75.6478ZM7.24542 75.6728L9.17373 70.5259C8.659 70.3331 8.11824 70.2185 7.56952 70.1861L7.24542 75.6728ZM36.1985 86.5202L34.2702 91.6671C35.883 92.2714 37.6858 92.0847 39.1406 91.1627C40.5954 90.2408 41.5339 88.6903 41.676 86.9738L36.1985 86.5202ZM36.2271 86.1743L41.7047 86.6282L41.7047 86.6277L36.2271 86.1743ZM37.0993 71.672L42.595 71.7531L42.5951 71.7468L37.0993 71.672ZM36.9914 61.2983L31.4964 61.4201L31.4965 61.4201L36.9914 61.2983ZM36.9902 61.2459L42.4852 61.1241L42.4851 61.1222L36.9902 61.2459ZM36.9896 61.2169L31.4947 61.3404L31.4947 61.3406L36.9896 61.2169ZM43.3754 20.9238L38.5518 18.289L38.5509 18.2905L43.3754 20.9238ZM94.7134 7.8002L94.8854 13.2938L94.8862 13.2938L94.7134 7.8002ZM208.538 6.55834L208.542 12.0546L208.542 12.0546L208.538 6.55834ZM208.626 6.55828L208.63 12.0546L208.63 12.0546L208.626 6.55828ZM232.555 6.53157L232.564 12.0279L232.567 12.0279L232.555 6.53157ZM277.095 6.25782L277.05 0.761702L277.05 0.761708L277.095 6.25782ZM277.811 6.25203L277.855 11.7481L277.855 11.7481L277.811 6.25203ZM369.835 6.31791L369.734 11.8133L369.734 11.8133L369.835 6.31791ZM444.292 25.2838L440.379 29.1438L440.381 29.1457L444.292 25.2838ZM454.36 61.3057L448.864 61.2558C448.864 61.2724 448.864 61.2891 448.864 61.3057L454.36 61.3057ZM454.36 61.3093L459.856 61.366C459.856 61.3471 459.857 61.3282 459.857 61.3093L454.36 61.3093ZM454.547 72.0692L449.066 72.4804L449.066 72.4829L454.547 72.0692ZM455.443 82.0279L449.973 82.5649L449.973 82.5703L455.443 82.0279ZM455.443 82.0362L460.914 81.5058L460.913 81.4938L455.443 82.0362ZM455.614 117.332L450.207 116.343L450.207 116.346L455.614 117.332ZM422.668 145.783L421.628 140.386L421.627 140.386L422.668 145.783ZM343.753 149.762L343.791 144.266L343.791 144.266L343.753 149.762ZM342.831 149.756L342.791 155.252L342.792 155.252L342.831 149.756ZM324.407 155.175H326.735V144.183H324.407V155.175ZM290.717 155.539C302.3 155.374 313.644 155.213 324.426 155.175L324.388 144.183C313.536 144.221 302.132 144.383 290.561 144.547L290.717 155.539ZM242.533 155.92C258.386 155.998 274.775 155.765 290.717 155.539L290.561 144.547C274.599 144.774 258.316 145.005 242.588 144.927L242.533 155.92ZM240.832 155.699C240.914 155.699 240.985 155.705 241.038 155.711C241.094 155.718 241.108 155.724 241.082 155.717L244.039 145.13C242.98 144.834 241.876 144.707 240.832 144.707V155.699ZM240.801 155.699H240.832V144.707H240.801V155.699ZM213.706 155.9C222.823 155.817 231.87 155.735 240.823 155.699L240.779 144.707C231.793 144.743 222.719 144.825 213.607 144.908L213.706 155.9ZM213.395 155.903L213.706 155.9L213.606 144.908L213.295 144.911L213.395 155.903ZM212.475 155.911L213.394 155.903L213.296 144.911L212.377 144.919L212.475 155.911ZM175.626 156.13C187.941 156.13 200.415 156.019 212.475 155.911L212.377 144.919C200.309 145.026 187.884 145.137 175.626 145.137V156.13ZM88.8785 152.861C119.595 155.761 151.44 156.13 175.626 156.13V145.137C151.502 145.137 120.087 144.766 89.9117 141.917L88.8785 152.861ZM81.9498 152.082C84.187 152.376 86.497 152.636 88.8788 152.861L89.9114 141.917C87.6556 141.704 85.4805 141.459 83.3857 141.183L81.9498 152.082ZM82.4884 141.139C75.3474 141.372 68.5428 140.742 63.1492 139.374C57.4617 137.932 54.4878 135.962 53.4683 134.461L44.3745 140.637C47.7506 145.608 54.1231 148.426 60.4466 150.03C67.0638 151.708 74.9346 152.384 82.847 152.126L82.4884 141.139ZM53.4781 134.475C52.8259 133.509 52.1779 132.549 51.5338 131.598L42.4306 137.76C43.0712 138.706 43.7158 139.66 44.3647 140.622L53.4781 134.475ZM33.7694 126.363C35.7316 131.338 39.115 135.55 43.6244 139.03L50.34 130.327C47.1463 127.863 45.1206 125.183 43.9954 122.33L33.7694 126.363ZM32.5292 122.838C32.896 124.017 33.3079 125.193 33.7694 126.363L43.9954 122.33C43.6368 121.421 43.3144 120.501 43.0255 119.573L32.5292 122.838ZM42.3011 118.084C30.9627 101.653 20.783 87.5483 10.8946 74.5536L2.14673 81.2104C11.9133 94.045 21.9926 108.008 33.2536 124.327L42.3011 118.084ZM10.9357 74.6083C11.2128 74.9821 11.4335 75.4218 11.5672 75.9028C11.6987 76.3757 11.7204 76.7949 11.7008 77.1138L0.728855 76.4401C0.631477 78.026 1.0271 79.7011 2.10563 81.1556L10.9357 74.6083ZM11.702 77.093C11.6746 77.5687 11.5457 78.1465 11.207 78.7522C10.9064 79.2897 10.1556 80.3301 8.65782 80.8591L4.99679 70.4941C3.17166 71.1387 2.13005 72.4617 1.61276 73.3867C1.05734 74.3799 0.785849 75.45 0.72762 76.4609L11.702 77.093ZM12.2113 74.5711L12.2054 74.5423L1.43742 76.7533L1.44334 76.7821L12.2113 74.5711ZM6.49729 81.1345L6.92132 81.1596L7.56952 70.1861L7.1455 70.1611L6.49729 81.1345ZM5.31711 80.8198L34.2702 91.6671L38.1268 81.3733L9.17373 70.5259L5.31711 80.8198ZM30.7496 85.7204C30.7401 85.8356 30.7305 85.9511 30.7209 86.0665L41.676 86.9738C41.6856 86.8587 41.6951 86.7435 41.7047 86.6282L30.7496 85.7204ZM31.6036 71.5908C31.5367 76.1177 31.1492 80.8937 30.7496 85.7209L41.7047 86.6277C42.0994 81.8601 42.5217 76.7142 42.595 71.7531L31.6036 71.5908ZM31.4965 61.4201C31.5743 64.9323 31.6484 68.3007 31.6035 71.5971L42.5951 71.7468C42.6431 68.2201 42.5634 64.653 42.4863 61.1765L31.4965 61.4201ZM31.4953 61.3677L31.4964 61.4201L42.4863 61.1765L42.4852 61.1241L31.4953 61.3677ZM31.4947 61.3406L31.4953 61.3696L42.4851 61.1222L42.4845 61.0932L31.4947 61.3406ZM38.5509 18.2905C30.736 32.6085 31.1963 48.0673 31.4947 61.3404L42.4845 61.0934C42.1759 47.3629 42.0086 34.9002 48.1998 23.557L38.5509 18.2905ZM94.5415 2.30659C82.7393 2.67599 70.9461 3.25515 61.2981 5.19381C52.0112 7.05993 42.7876 10.5341 38.5518 18.289L48.199 23.5585C49.8732 20.4934 54.479 17.7764 63.4637 15.971C72.0873 14.2382 83.0081 13.6655 94.8854 13.2938L94.5415 2.30659ZM208.534 1.06205C171.153 1.08873 132.407 1.11594 94.5407 2.30661L94.8862 13.2938C132.555 12.1093 171.132 12.0813 208.542 12.0546L208.534 1.06205ZM208.622 1.06199L208.534 1.06205L208.542 12.0546L208.63 12.0546L208.622 1.06199ZM232.545 1.03529C224.582 1.04863 216.603 1.05531 208.621 1.06199L208.63 12.0546C216.611 12.0479 224.595 12.0412 232.564 12.0279L232.545 1.03529ZM277.05 0.761708C262.433 0.881904 247.342 1.00195 232.542 1.03529L232.567 12.0279C247.404 11.9944 262.526 11.8741 277.14 11.7539L277.05 0.761708ZM277.766 0.755911L277.05 0.761702L277.139 11.7539L277.855 11.7481L277.766 0.755911ZM328.682 0.481091C311.728 0.481091 294.46 0.620838 277.766 0.755911L277.855 11.7481C294.557 11.613 311.78 11.4737 328.682 11.4737V0.481091ZM369.936 0.822549C357.406 0.591447 343.908 0.481091 328.682 0.481091V11.4737C343.855 11.4737 357.284 11.5837 369.734 11.8133L369.936 0.822549ZM448.205 21.4238C441.352 14.4775 431.072 9.56533 418.147 6.27315C405.157 2.96435 389.02 1.17262 369.936 0.822539L369.734 11.8133C388.323 12.1543 403.547 13.898 415.433 16.9256C427.385 19.9699 435.497 24.1951 440.379 29.1438L448.205 21.4238ZM459.856 61.3557C459.962 49.7089 460.335 33.7084 448.203 21.4219L440.381 29.1457C448.85 37.7226 448.976 48.914 448.864 61.2558L459.856 61.3557ZM459.857 61.3093V61.3057H448.864V61.3093H459.857ZM460.028 71.6581C459.792 68.5057 459.817 65.1788 459.856 61.366L448.864 61.2526C448.826 64.9848 448.789 68.7822 449.066 72.4804L460.028 71.6581ZM460.913 81.491C460.586 78.1598 460.272 74.8895 460.028 71.6556L449.066 72.4829C449.321 75.8525 449.646 79.2324 449.973 82.5649L460.913 81.491ZM460.913 81.4938L460.912 81.4855L449.973 82.5703L449.974 82.5786L460.913 81.4938ZM461.021 118.321C463.307 105.819 462.029 93.0063 460.914 81.5058L449.973 82.5666C451.115 94.3501 452.171 105.609 450.207 116.343L461.021 118.321ZM423.709 151.18C437.257 148.568 446.186 143.702 451.995 137.459C457.802 131.218 459.952 124.175 461.021 118.319L450.207 116.346C449.329 121.157 447.753 125.881 443.948 129.97C440.144 134.058 433.573 138.083 421.628 140.386L423.709 151.18ZM360.234 155.335C380.673 155.335 404.587 154.867 423.709 151.18L421.627 140.386C403.669 143.849 380.738 144.343 360.234 144.343V155.335ZM343.714 155.258C349.124 155.296 354.663 155.335 360.234 155.335V144.343C354.708 144.343 349.207 144.304 343.791 144.266L343.714 155.258ZM342.792 155.252L343.714 155.258L343.791 144.266L342.869 144.259L342.792 155.252ZM326.735 155.175C331.914 155.175 337.284 155.212 342.791 155.252L342.871 144.259C337.367 144.219 331.96 144.183 326.735 144.183V155.175Z" fill="black" mask="url(#path-1-outside-1_1_223)"/>
</svg>
